<?xml version="1.0" standalone="no"?>
<!DOCTYPE svg PUBLIC "-//W3C//DTD SVG 20010904//EN"
 "http://www.w3.org/TR/2001/REC-SVG-20010904/DTD/svg10.dtd">
<svg version="1.0" xmlns="http://www.w3.org/2000/svg"
 width="1024.000000pt" height="1024.000000pt" viewBox="0 0 1024.000000 1024.000000"
 preserveAspectRatio="xMidYMid meet">
<metadata>
Created by potrace 1.14, written by Peter Selinger 2001-2017
</metadata>
<g transform="translate(0.000000,1024.000000) scale(0.100000,-0.100000)"
fill="#000000" stroke="none">
<path d="M0 5120 l0 -5120 5120 0 5120 0 0 5120 0 5120 -5120 0 -5120 0 0
-5120z m5204 4004 c3 -9 6 -103 6 -209 0 -163 -3 -196 -16 -209 -10 -10 -11
-16 -4 -16 8 0 9 -7 5 -17 -4 -10 -11 -40 -15 -68 l-8 -50 -2 45 c-1 25 -4 54
-7 65 -8 27 -16 443 -9 461 7 19 42 18 50 -2z m-743 -224 c53 -132 131 -356
133 -377 0 -13 4 -23 9 -23 4 0 6 -3 5 -7 -1 -5 4 -21 10 -36 15 -35 15 -47 2
-47 -5 0 -10 6 -10 13 0 9 -2 9 -8 0 -8 -13 -18 9 -138 326 -41 107 -74 200
-74 208 0 9 8 13 22 11 18 -2 29 -18 49 -68z m1506 59 c13 -13 10 -24 -55
-194 -76 -199 -83 -215 -93 -209 -5 3 -6 -3 -2 -12 6 -16 -19 -44 -39 -44 -14
0 -10 16 43 168 103 297 115 322 146 291z m-1115 -132 c13 -64 47 -331 42
-336 -2 -2 -6 -2 -9 1 -6 6 -65 280 -72 337 -5 38 -4 43 13 39 12 -2 21 -16
26 -41z m688 -41 c0 -48 -13 -86 -29 -87 -10 0 -11 -2 -3 -6 6 -2 12 -16 12
-30 0 -15 -5 -23 -12 -20 -13 4 -15 97 -3 145 7 30 35 29 35 -2z m846 -83 c43
-57 -25 -124 -78 -76 -10 9 -18 25 -18 36 0 49 68 76 96 40z m-878 -87 c3 -12
-1 -17 -10 -14 -7 3 -15 13 -16 22 -3 12 1 17 10 14 7 -3 15 -13 16 -22z
m1388 -22 c10 -24 25 -40 45 -47 16 -6 29 -14 29 -17 0 -4 -16 -14 -35 -23
-21 -10 -37 -26 -41 -42 -8 -33 -32 -32 -36 3 -2 19 -12 31 -35 42 -36 17 -38
33 -4 38 12 2 24 9 26 15 28 80 30 81 51 31z m-2679 -26 c5 -7 40 -70 77 -140
101 -194 73 -166 -76 75 -34 55 -40 77 -19 77 5 0 13 -6 18 -12z m-406 -30
c16 -18 217 -265 271 -335 6 -8 2 -15 -12 -23 -18 -10 -24 -7 -43 17 -12 15
-72 84 -132 153 -140 158 -147 168 -134 192 13 24 24 23 50 -4z m2782 -10 c11
-17 -11 -49 -138 -193 -38 -44 -84 -98 -102 -120 -30 -37 -33 -39 -49 -23 -19
19 -30 2 110 178 151 191 156 195 179 158z m-439 -6 c4 -7 -112 -203 -135
-226 -20 -22 -7 14 42 110 64 124 77 141 93 116z m-3078 -137 c14 -13 14 -17
0 -31 -22 -21 -49 2 -32 28 13 22 14 22 32 3z m1571 -47 c-3 -7 -5 -2 -5 12 0
14 2 19 5 13 2 -7 2 -19 0 -25z m540 26 c-3 -3 -12 -4 -19 -1 -8 3 -5 6 6 6
11 1 17 -2 13 -5z m2173 -71 c0 -7 11 -15 25 -19 32 -8 32 -30 0 -38 -15 -4
-30 -17 -35 -32 -10 -26 -30 -25 -30 2 0 8 -14 23 -31 33 l-31 19 30 16 c18 9
32 27 37 43 6 27 7 27 21 9 8 -11 14 -26 14 -33z m-1655 17 c3 -5 1 -10 -4
-10 -6 0 -11 5 -11 10 0 6 2 10 4 10 3 0 8 -4 11 -10z m-2820 -60 c15 -16 16
-22 5 -35 -17 -21 -54 -15 -58 8 -4 18 14 47 28 47 4 0 15 -9 25 -20z m370
-32 c8 -50 20 -68 46 -68 11 0 19 -4 19 -10 0 -5 7 -7 16 -3 12 4 15 2 12 -8
-2 -7 -19 -16 -36 -20 -46 -9 -62 -27 -62 -66 0 -30 -2 -34 -15 -23 -8 7 -15
21 -15 32 0 40 -19 58 -60 58 -47 0 -56 26 -12 36 55 12 62 16 62 33 0 26 21
81 30 81 5 0 11 -19 15 -42z m421 -109 c46 -39 84 -77 84 -84 0 -26 -30 -24
-63 3 -17 15 -56 45 -84 67 -49 36 -63 61 -46 78 13 14 27 6 109 -64z m3124
56 c16 -19 10 -27 -83 -101 -70 -55 -83 -62 -95 -50 -8 8 -11 19 -7 25 9 16
156 141 165 141 4 0 13 -7 20 -15z m-510 -14 c0 -15 -108 -121 -112 -110 -3 8
-9 9 -17 5 -11 -7 -11 -10 0 -17 11 -7 10 -9 -3 -9 -10 0 -18 4 -18 8 0 13 48
51 55 44 3 -4 3 1 0 9 -4 11 5 25 24 42 17 14 31 30 31 35 0 6 9 8 20 5 11 -3
20 -8 20 -12z m-916 -6 c517 -77 946 -440 1109 -940 55 -169 62 -216 62 -435
-1 -204 -11 -285 -39 -302 -8 -6 -7 -8 2 -8 13 0 7 -45 -10 -66 -5 -7 -8 -16
-7 -20 4 -22 -2 -34 -18 -35 -15 0 -15 -2 2 -9 11 -5 14 -9 7 -9 -7 -1 -10 -6
-6 -13 5 -8 0 -9 -15 -5 -17 4 -21 2 -17 -9 5 -12 2 -12 -15 -3 -19 10 -20 9
-9 -11 6 -12 9 -24 6 -28 -3 -3 -6 1 -6 8 0 11 -3 11 -12 2 -8 -8 -9 -15 -1
-23 7 -7 15 -5 27 6 21 22 22 -3 1 -31 -12 -14 -14 -15 -9 -2 4 13 1 15 -15
11 -11 -3 -17 -11 -15 -18 3 -7 1 -16 -5 -20 -6 -3 -11 1 -11 9 0 21 -12 20
-44 -5 -14 -11 -26 -16 -26 -10 0 5 5 13 10 16 6 3 10 11 10 16 0 6 -5 7 -11
3 -6 -3 -15 0 -20 7 -7 11 -9 10 -9 -4 0 -19 -29 -20 -42 -2 -5 6 -8 5 -8 -2
0 -7 -10 -13 -23 -13 -19 0 -23 -5 -21 -22 1 -13 3 -27 3 -31 1 -5 6 -5 11 -2
6 3 10 -4 11 -17 1 -21 2 -20 14 7 l14 30 1 -27 c0 -31 -26 -43 -73 -34 -22 4
-27 1 -27 -15 0 -10 -3 -18 -7 -17 -5 2 -9 -1 -10 -7 -1 -5 5 -9 13 -7 21 4
17 -15 -8 -32 -15 -10 -25 -12 -33 -6 -9 7 -17 5 -26 -7 -9 -11 -10 -14 -1 -9
6 4 12 2 12 -3 0 -7 -23 -10 -59 -8 -40 2 -58 0 -53 -7 3 -6 -1 -6 -9 1 -25
20 -42 -1 -42 -51 1 -25 -3 -48 -8 -51 -5 -4 -7 0 -4 7 4 10 -8 13 -47 11 -29
-1 -47 1 -41 5 8 5 -1 8 -21 8 -19 0 -32 -4 -30 -8 10 -16 -9 -8 -21 9 -10 13
-16 15 -26 6 -21 -17 -42 3 -63 59 -25 67 -84 163 -133 219 -37 41 -43 53 -43
93 0 114 -99 253 -206 290 -146 49 -316 -17 -378 -147 -43 -91 -50 -161 -37
-356 6 -96 10 -176 8 -177 -1 -1 -23 1 -49 5 -26 4 -45 4 -42 -1 3 -4 -9 -8
-25 -8 -17 0 -31 4 -31 9 0 17 -33 21 -50 6 -11 -10 -20 -12 -24 -6 -4 5 1 14
9 19 12 6 7 8 -18 8 -19 -1 -34 -3 -32 -6 2 -3 -4 -12 -13 -20 -14 -13 -15
-12 -9 3 7 18 -8 24 -18 7 -4 -6 -12 -7 -18 -3 -8 5 -8 2 1 -9 11 -13 8 -15
-19 -12 -17 2 -35 6 -40 9 -5 4 -9 2 -9 -3 0 -5 -10 -8 -23 -7 -13 2 -63 -3
-113 -10 -72 -11 -91 -11 -102 -1 -11 10 -10 13 3 13 8 0 15 -4 15 -9 0 -4 5
-8 11 -8 6 0 8 7 5 16 -4 12 -2 15 9 10 8 -3 15 -2 15 3 0 10 40 18 197 36 67
7 131 18 142 24 11 6 37 32 58 58 l38 46 0 355 c1 231 -3 358 -10 367 -5 7
-25 16 -42 20 l-33 7 0 -81 0 -80 -37 13 c-68 24 -132 57 -155 81 -13 13 -37
54 -52 92 -48 113 -126 306 -126 309 0 7 136 71 198 94 69 25 105 60 123 119
22 74 -34 141 -119 141 -77 0 -128 -70 -116 -159 l6 -48 -63 -35 -64 -35 -13
38 c-17 50 -56 64 -84 30 -13 -17 -15 -28 -8 -41 33 -62 32 -68 -18 -90 -88
-39 -127 -96 -112 -163 17 -78 67 -121 115 -99 27 13 33 39 11 48 -25 9 -48
54 -42 79 5 21 80 75 103 75 5 0 21 -33 36 -72 156 -432 163 -442 335 -494
l84 -26 -4 -131 -3 -132 -35 -5 c-19 -4 -46 -12 -58 -19 -13 -7 -26 -10 -29
-7 -3 3 -11 -1 -17 -10 -10 -13 -15 -13 -41 0 -41 19 -85 31 -65 17 19 -13 0
-14 -20 -1 -8 5 -10 10 -4 10 7 0 12 17 11 45 l-1 44 -43 -3 c-24 -2 -47 -7
-50 -10 -13 -13 -74 -6 -79 9 -4 8 -14 15 -23 14 -10 0 -11 -2 -4 -6 24 -9
-14 -33 -49 -32 -50 2 -68 9 -68 25 0 8 -4 14 -10 14 -5 0 -10 7 -10 15 0 8 5
15 11 15 5 0 8 -3 6 -7 -3 -5 6 -8 19 -8 13 0 24 4 24 8 0 5 13 6 29 2 17 -3
32 -2 36 4 3 6 18 11 33 11 l27 -1 -30 -13 c-29 -13 -27 -14 26 -9 42 4 59 2
71 -11 23 -22 40 -20 61 9 16 22 16 26 3 31 -9 3 -14 10 -11 14 8 13 -23 32
-37 24 -17 -11 -34 -13 -150 -22 -93 -7 -148 0 -148 19 0 5 -7 9 -15 9 -8 0
-15 -5 -15 -10 0 -7 -24 -9 -62 -7 -48 3 -66 0 -74 -11 -10 -14 -13 -13 -23 6
-15 28 3 37 59 29 48 -6 52 -1 8 11 -24 6 19 11 156 20 226 13 273 32 83 32
-99 0 -133 4 -152 16 -15 10 -39 14 -67 11 l-43 -4 50 -2 50 -3 -40 -9 c-43
-8 -125 -12 -125 -5 0 2 -3 13 -6 23 -4 12 -3 14 3 6 7 -9 20 -9 58 2 36 9 43
14 25 15 l-25 2 25 7 c14 4 28 4 31 -1 3 -5 18 -4 32 1 30 12 36 41 12 65 -8
8 -13 20 -12 28 2 7 2 10 0 5 -3 -4 -10 -4 -15 -1 -7 4 -8 2 -4 -4 4 -7 1 -12
-9 -12 -9 0 -14 -4 -11 -9 3 -4 -5 -6 -18 -4 -13 3 -27 0 -30 -6 -4 -6 -23
-11 -43 -11 -34 0 -35 1 -31 35 2 20 0 35 -7 35 -5 0 -3 4 4 9 8 6 22 6 31 1
8 -4 34 -7 58 -6 24 1 42 -2 42 -8 0 -6 4 -5 9 2 4 8 12 12 17 10 5 -1 10 10
12 26 l4 28 -91 -4 -91 -4 1 55 c0 44 2 51 9 34 10 -24 34 -31 45 -13 3 6 14
10 23 10 15 0 15 -2 2 -10 -11 -7 -2 -10 31 -10 44 0 47 2 53 31 8 40 -4 54
-46 56 l-33 2 40 -19 40 -19 -42 2 c-28 1 -43 6 -43 14 0 7 -7 13 -16 13 -14
0 -14 -3 -4 -15 8 -10 9 -15 2 -15 -6 0 -16 8 -21 18 -6 10 -11 12 -11 4 0
-28 -16 -2 -18 31 -2 23 4 39 18 52 11 10 20 13 20 7 0 -7 11 -12 25 -12 14 0
34 -9 45 -20 11 -11 20 -15 20 -10 0 6 7 10 15 10 8 0 15 7 15 15 0 10 -10 14
-32 14 -43 -1 -77 7 -94 22 -8 6 -14 8 -14 4 0 -5 -2 -6 -5 -3 -3 3 4 47 15
98 70 315 259 601 531 805 53 40 121 86 151 103 116 67 334 140 477 161 93 14
277 12 385 -4z m1715 -23 c22 -43 -33 -87 -79 -62 -16 9 -20 19 -18 43 5 56
71 69 97 19z m-2981 16 c9 -9 12 -9 12 2 0 17 34 -28 37 -48 4 -29 13 -43 24
-36 8 5 9 3 5 -5 -5 -8 -2 -11 9 -9 22 4 31 -17 11 -25 -9 -4 -24 7 -41 28
-14 19 -25 36 -23 37 6 7 -46 57 -54 52 -4 -3 -8 0 -8 5 0 14 13 14 28 -1z
m3602 -89 c0 -5 10 -9 23 -9 31 0 47 -18 47 -52 0 -31 -35 -54 -57 -36 -6 5
-17 8 -25 7 -43 -9 -76 30 -63 72 10 31 75 47 75 18z m-5020 -66 c19 -71 57
-140 86 -160 14 -9 60 -29 103 -44 60 -21 72 -29 56 -35 -91 -33 -145 -60
-172 -86 -30 -29 -73 -110 -80 -152 -2 -10 -7 -25 -12 -33 -6 -12 -10 -10 -15
11 -4 15 -4 32 0 38 4 7 3 8 -4 4 -7 -4 -12 -1 -12 9 0 9 -7 30 -16 46 -12 25
-13 34 -3 47 11 14 11 15 0 5 -10 -9 -19 -4 -42 22 -25 28 -87 60 -174 90
l-20 7 20 9 c11 5 47 18 80 30 87 32 128 77 156 172 12 42 25 74 29 72 4 -2
13 -26 20 -52z m1140 -10 c24 -21 26 -39 5 -47 -17 -6 -50 37 -40 54 8 13 11
13 35 -7z m2748 1 c-5 -25 -40 -45 -58 -33 -13 8 -11 12 9 29 28 24 54 26 49
4z m-3397 -123 c-14 -14 -18 -14 -32 -1 -12 12 -13 17 -2 23 7 4 13 16 13 25
0 14 4 12 19 -7 17 -22 17 -25 2 -40z m738 46 c6 -8 7 -18 3 -22 -4 -5 -2 -5
4 -2 14 8 54 -20 54 -39 0 -8 -6 -14 -12 -14 -21 1 -91 68 -83 79 8 15 20 14
34 -2z m2559 1 c14 -18 -69 -80 -89 -68 -10 7 -5 17 26 44 45 40 49 41 63 24z
m-2924 -146 c60 -37 111 -73 114 -79 9 -30 -32 -21 -110 22 -121 69 -152 93
-137 111 6 8 14 14 18 14 3 0 55 -31 115 -68z m3386 16 c-14 -11 -70 -43 -124
-70 -77 -38 -101 -47 -107 -36 -11 17 -11 17 116 92 99 59 111 64 125 50 13
-14 12 -17 -10 -36z m325 -28 c0 -8 -10 -16 -22 -18 -18 -3 -23 2 -23 18 0 16
5 21 23 18 12 -2 22 -10 22 -18z m707 -28 c-7 -2 -12 -11 -12 -20 0 -13 -3
-12 -18 4 -17 17 -18 21 -3 40 l16 21 14 -20 c11 -15 12 -22 3 -25z m-275 -72
c23 -50 47 -92 55 -94 7 -2 47 -8 88 -13 80 -9 78 -6 27 -48 -7 -6 -36 -30
-64 -53 -31 -26 -53 -52 -53 -64 0 -10 5 -16 10 -13 6 3 10 1 10 -4 0 -6 -4
-11 -10 -11 -5 0 -8 -6 -6 -12 1 -7 1 -10 -1 -5 -7 11 -33 8 -33 -4 0 -5 -4
-8 -9 -5 -5 4 -4 16 2 30 7 13 15 22 19 20 5 -3 8 1 8 9 0 8 3 29 6 46 4 20 2
31 -4 31 -6 0 -9 -7 -6 -15 4 -10 0 -15 -15 -15 -29 0 -58 -45 -41 -65 7 -9
10 -18 7 -21 -3 -4 4 -15 16 -25 27 -23 15 -25 -18 -3 -16 10 -32 13 -47 8
-13 -4 -27 -7 -33 -5 -5 1 -7 -1 -3 -4 11 -11 -40 -48 -53 -39 -8 4 -9 3 -5
-4 4 -7 1 -12 -8 -12 -9 0 -16 -4 -16 -10 0 -5 -4 -10 -10 -10 -6 0 -6 9 0 24
5 13 6 27 3 30 -4 3 -2 6 3 6 5 0 9 12 10 28 0 15 4 41 8 57 7 29 4 33 -75 90
-81 57 -82 59 -55 66 15 4 53 9 84 10 89 4 88 3 123 100 17 49 35 89 38 89 4
0 26 -41 48 -90z m-3927 -22 c30 -22 40 -48 19 -48 -7 0 -27 9 -46 21 -27 17
-31 24 -22 35 15 18 14 18 49 -8z m2878 1 c3 -16 -63 -53 -79 -44 -16 11 -10
23 24 44 35 22 50 22 55 0z m-4486 -26 c25 -22 23 -31 -7 -25 -14 2 -31 -1
-39 -7 -10 -9 -13 -7 -12 9 0 12 8 25 16 30 20 13 21 13 42 -7z m1276 -181
c86 -30 116 -49 104 -68 -6 -10 -70 7 -216 59 -14 5 1 37 16 37 7 0 50 -13 96
-28z m3610 6 c-2 -17 -19 -26 -90 -48 -49 -15 -88 -25 -88 -23 0 3 -7 0 -15
-7 -17 -14 -37 -4 -33 17 3 17 164 80 206 82 19 1 23 -4 20 -21z m672 -27 c0
-5 -7 -11 -15 -15 -15 -5 -20 5 -8 17 9 10 23 9 23 -2z m477 -35 c-7 -18 -16
-20 -37 -6 -13 9 -12 12 4 25 23 17 42 5 33 -19z m-5857 -106 c45 0 50 -2 41
-17 -5 -10 -23 -27 -40 -38 -27 -17 -31 -25 -29 -57 2 -21 6 -38 11 -38 4 0 7
-9 7 -20 0 -16 -4 -18 -22 -11 -13 5 -22 14 -20 21 1 6 -2 9 -8 5 -6 -4 -18
-1 -26 6 -13 10 -20 10 -35 0 -11 -6 -30 -9 -42 -6 -17 5 -19 4 -7 -4 12 -8
12 -11 -3 -17 -26 -10 -32 3 -19 39 19 52 15 61 -35 98 l-48 34 58 3 c52 3 59
6 69 30 5 15 17 43 25 62 l16 35 28 -62 28 -63 51 0z m4417 66 c-4 -9 -18 -17
-32 -17 -14 -1 -31 -2 -37 -3 -28 -2 -11 28 22 39 38 14 56 6 47 -19z m-3075
6 c17 -16 -10 -34 -41 -27 -33 7 -46 19 -36 35 6 10 65 4 77 -8z m4103 -32
c-3 -6 -2 -10 3 -10 5 0 9 -7 9 -15 0 -8 -7 -15 -16 -15 -37 1 -80 60 -44 60
10 0 13 -6 9 -17 -5 -15 -4 -15 9 1 8 11 15 25 15 30 0 6 5 3 11 -7 5 -9 7
-22 4 -27z m-461 -76 c20 -20 21 -53 1 -60 -29 -11 -65 5 -65 29 0 43 35 60
64 31z m945 -39 c14 -42 21 -50 47 -56 65 -13 71 -31 15 -47 -43 -14 -54 -24
-68 -67 -14 -43 -39 -44 -47 -2 -8 42 -18 51 -74 69 -54 17 -54 34 2 42 50 8
61 18 71 61 4 17 9 36 11 43 8 25 26 7 43 -43z m-5361 -27 c35 -35 -1 -77 -54
-64 -44 11 -26 76 21 76 12 0 26 -5 33 -12z m4152 -113 c0 -13 -136 -32 -148
-20 -19 19 -8 35 26 36 21 1 51 5 67 8 31 8 55 -3 55 -24z m-3635 12 c11 -1
21 -11 23 -22 3 -20 0 -21 -70 -14 -40 4 -79 8 -85 8 -7 1 -13 10 -13 22 0 21
16 22 145 6z m173 -40 c3 -15 -3 -18 -37 -15 -32 1 -41 6 -41 21 0 15 6 18 37
15 27 -2 39 -8 41 -21z m3239 6 c2 -6 -14 -12 -37 -15 -43 -4 -63 8 -39 23 18
12 72 6 76 -8z m-4191 -10 c-22 -72 -39 -177 -45 -286 -5 -70 -11 -130 -13
-133 -3 -3 -15 -6 -27 -7 -11 -1 -21 -6 -21 -11 0 -5 -3 -7 -6 -3 -3 3 -27 -1
-52 -9 -64 -19 -65 -17 -9 12 26 14 45 28 43 33 -3 5 3 16 14 26 22 20 26 35
9 35 -5 0 -7 -4 -4 -10 3 -5 1 -10 -4 -10 -6 0 -11 3 -11 8 0 4 -14 7 -30 8
-17 1 -30 -3 -30 -9 0 -6 -2 -8 -5 -6 -2 3 7 36 21 73 13 38 23 70 21 73 -2 2
-16 -25 -31 -59 -48 -111 -187 -337 -208 -338 -4 0 13 36 38 81 25 44 61 120
81 167 19 48 44 105 55 127 l20 40 -36 -34 c-20 -19 -48 -52 -62 -73 -15 -21
-33 -38 -40 -38 -8 0 -13 -3 -12 -7 3 -15 -14 -43 -23 -37 -5 3 -9 -4 -9 -15
0 -22 -14 -28 -25 -11 -3 5 -12 7 -20 4 -11 -5 -12 -11 -5 -25 9 -16 8 -18
-12 -10 -31 12 -27 65 11 148 54 114 148 195 316 272 101 45 119 49 111 24z
m5131 -13 c198 -79 308 -178 358 -320 10 -28 10 -41 2 -49 -8 -8 -8 -11 0 -11
23 0 9 -40 -18 -49 -24 -8 -25 -7 -21 17 3 15 1 23 -5 19 -6 -4 -16 0 -23 8
-7 8 -16 12 -21 10 -4 -3 -26 20 -47 52 -22 32 -65 85 -96 118 l-56 60 55
-107 c30 -60 55 -112 55 -118 0 -17 60 -143 92 -193 43 -67 31 -67 -20 1 -37
49 -144 253 -173 331 -5 13 -12 21 -15 18 -3 -3 3 -22 14 -44 10 -21 22 -51
26 -66 l7 -28 -32 33 c-17 18 -28 28 -25 21 18 -34 -25 -61 -60 -38 -21 13
-23 13 -18 0 4 -8 17 -18 30 -21 13 -3 24 -10 24 -16 0 -5 -6 -6 -12 -2 -8 5
-8 2 1 -10 8 -9 34 -29 58 -43 53 -31 50 -41 -3 -17 -57 24 -87 26 -79 6 4
-11 3 -13 -3 -7 -20 22 -42 112 -42 174 -1 74 -21 195 -43 259 -18 53 -14 53
90 12z m-3830 -46 c-3 -3 -12 -4 -19 -1 -8 3 -5 6 6 6 11 1 17 -2 13 -5z
m-800 -49 c40 -40 42 -78 6 -83 -13 -2 -23 2 -23 8 0 6 -4 9 -9 5 -5 -3 -12
-1 -16 5 -10 15 -67 5 -82 -15 -7 -11 -13 -27 -13 -38 0 -16 5 -18 30 -12 33
7 80 -15 80 -38 0 -7 -3 -8 -8 -2 -4 6 -11 11 -17 12 -5 0 -27 4 -49 7 -21 4
-42 9 -47 12 -5 3 -9 -4 -9 -14 0 -30 -26 -34 -39 -6 -11 25 -26 31 -36 14 -4
-7 -11 -8 -18 -1 -16 13 -79 17 -96 6 -11 -6 -13 -4 -8 7 4 11 1 15 -11 13 -9
-2 -23 -4 -30 -4 -7 -1 -10 -5 -7 -11 3 -5 1 -10 -4 -10 -29 0 3 98 40 124 49
34 135 14 178 -40 l21 -27 0 32 c0 47 47 91 95 91 29 0 45 -8 72 -35z m4166
-5 c18 -20 27 -41 27 -63 l0 -32 19 31 c28 46 59 64 109 64 36 0 49 -6 72 -30
31 -33 42 -73 30 -104 -5 -12 -9 -15 -9 -7 -1 8 -8 11 -21 8 -10 -3 -21 0 -24
7 -3 7 -8 6 -15 -4 -10 -13 -11 -13 -11 0 0 13 -1 13 -10 0 -6 -9 -10 -11 -10
-3 0 7 -7 10 -15 7 -8 -4 -15 -2 -15 4 0 5 -12 9 -27 8 -18 -1 -32 -10 -42
-28 -18 -31 -20 -32 -56 -18 -14 5 -23 14 -20 20 4 6 13 7 23 1 15 -8 18 -5
20 16 1 17 -2 23 -11 20 -7 -2 -28 8 -46 24 -25 20 -38 26 -47 18 -6 -5 -23
-8 -37 -5 -14 2 -27 0 -30 -7 -6 -18 -27 2 -27 26 0 82 113 113 173 47z
m-5455 -16 c31 -36 29 -54 -9 -54 -22 0 -40 -9 -60 -31 -29 -31 -30 -31 -49
-14 -22 20 -26 65 -9 96 23 45 88 46 127 3z m6696 -40 c21 -20 20 -27 -4 -49
-17 -15 -24 -16 -45 -7 -14 6 -25 18 -25 26 0 18 27 46 45 46 7 0 21 -7 29
-16z m-1290 -72 c8 -13 -18 -37 -41 -37 -31 0 -33 14 -3 30 29 17 37 18 44 7z
m-3854 -63 c0 -17 -5 -20 -37 -17 -22 2 -38 9 -41 18 -4 12 -2 13 9 3 18 -18
59 -16 59 2 0 8 2 15 5 15 3 0 5 -9 5 -21z m150 5 c0 -8 -4 -12 -10 -9 -5 3
-10 1 -10 -4 0 -6 -13 -11 -30 -11 -22 0 -30 5 -29 18 0 10 3 12 6 5 7 -18 32
-16 39 2 8 20 34 19 34 -1z m3300 -10 c0 -9 -11 -14 -30 -14 -16 0 -30 4 -30
10 0 5 -7 7 -15 4 -9 -4 -15 -1 -15 8 0 10 12 12 45 10 30 -3 45 -9 45 -18z
m74 15 c-3 -6 0 -15 7 -20 11 -7 10 -9 -3 -9 -11 0 -18 8 -18 20 0 11 5 20 11
20 5 0 7 -5 3 -11z m56 -9 c0 -5 -5 -10 -11 -10 -5 0 -7 5 -4 10 3 6 8 10 11
10 2 0 4 -4 4 -10z m-5086 -121 c38 -30 56 -71 56 -130 l0 -51 -21 23 c-14 17
-22 20 -25 12 -9 -21 -24 -15 -25 10 -2 21 -2 21 -6 -2 -3 -15 -8 -20 -12 -13
-5 9 -15 9 -40 -1 -29 -11 -34 -10 -48 8 -15 20 -15 20 -10 -2 3 -13 1 -23 -4
-23 -5 0 -9 5 -9 12 0 6 -3 8 -6 5 -4 -3 -16 -2 -27 4 -13 7 -17 7 -13 1 3 -6
2 -13 -4 -17 -5 -3 -10 -2 -10 3 0 13 -45 9 -63 -6 -36 -30 -25 29 12 62 14
13 29 17 49 13 27 -5 29 -4 30 26 2 74 113 116 176 66z m6657 -8 c17 -18 29
-40 29 -56 0 -15 5 -25 13 -24 31 4 50 -3 72 -26 34 -33 34 -64 0 -57 -14 2
-22 8 -19 13 3 5 -2 6 -10 3 -10 -4 -16 -1 -16 7 0 10 -3 11 -8 3 -4 -7 -25
-11 -47 -10 -22 1 -46 -2 -52 -7 -9 -7 -13 -4 -13 9 0 15 -2 16 -9 5 -5 -8
-14 -10 -21 -6 -9 5 -11 4 -6 -3 4 -7 3 -12 -3 -12 -5 0 -13 5 -16 11 -4 6
-13 8 -21 5 -8 -3 -14 0 -15 7 0 8 -2 7 -6 -2 -5 -11 -7 -11 -14 0 -6 10 -9
11 -9 2 0 -7 -7 -13 -15 -13 -11 0 -15 12 -15 51 0 46 4 55 39 90 34 34 44 39
86 39 38 0 52 -5 76 -29z m-4712 -23 c13 -4 13 -5 0 -10 -9 -4 -21 2 -29 15
-11 19 -11 20 1 11 8 -6 21 -13 28 -16z m-673 -96 c-19 -26 -55 -91 -80 -145
-45 -97 -45 -97 -81 -97 -20 0 -45 -5 -56 -10 -13 -7 -19 -7 -19 -1 0 14 58
121 79 145 9 12 -2 7 -29 -11 -46 -31 -89 -75 -150 -151 -22 -27 -39 -41 -49
-37 -8 3 -18 1 -21 -5 -5 -8 -9 -6 -13 5 -4 9 -3 13 3 10 16 -10 11 1 -7 16
-11 10 -14 10 -9 2 4 -8 2 -13 -8 -13 -8 0 -17 6 -19 13 -3 7 -6 5 -6 -5 -1
-22 -31 -24 -31 -3 0 32 42 124 75 162 19 22 65 57 105 77 69 36 266 95 322
96 l28 0 -34 -48z m4134 12 c52 -14 118 -35 147 -49 98 -45 183 -147 198 -240
6 -37 5 -38 -9 -21 -8 10 -19 15 -24 12 -6 -3 -13 0 -15 6 -3 8 -6 6 -6 -4 -1
-19 -26 -24 -36 -8 -12 20 -25 9 -21 -17 5 -27 4 -27 -9 -8 -77 105 -155 184
-212 214 -17 8 -10 -7 27 -61 28 -39 50 -74 50 -78 0 -4 -24 -8 -53 -9 l-54
-2 -45 93 c-25 51 -60 113 -79 138 -58 75 -58 74 -3 66 27 -4 92 -18 144 -32z
m-3722 -85 c-22 -15 -65 -11 -65 6 0 9 12 18 26 21 14 3 31 7 36 8 16 4 19
-26 3 -35z m3162 22 c0 -6 -4 -13 -10 -16 -5 -3 -10 1 -10 9 0 9 5 16 10 16 6
0 10 -4 10 -9z m-3296 -36 c2 -6 -16 -19 -40 -28 -24 -9 -44 -12 -44 -8 0 5
-9 11 -20 14 -13 3 -20 0 -20 -9 0 -8 -4 -14 -10 -14 -5 0 -10 6 -10 14 0 30
133 58 144 31z m861 5 c4 -7 -3 -8 -22 -4 -38 9 -42 14 -10 14 14 0 29 -5 32
-10z m2492 4 c-3 -3 -12 -4 -19 -1 -8 3 -5 6 6 6 11 1 17 -2 13 -5z m195 -20
c4 -3 8 -11 8 -18 0 -15 -42 -14 -82 2 -30 12 -39 26 -10 15 14 -6 15 -4 4 9
-12 14 -9 15 29 7 23 -6 46 -12 51 -15z m-2989 -41 c-3 -7 -19 -13 -37 -14
-17 -1 -47 -2 -66 -4 -34 -3 -50 7 -50 33 0 6 5 12 11 12 6 0 9 -7 5 -15 -5
-13 2 -15 42 -11 26 3 57 5 69 5 17 1 21 5 17 19 -5 13 -4 14 4 3 6 -8 8 -20
5 -28z m-2129 -24 c30 -35 35 -60 8 -36 -10 10 -22 14 -25 10 -4 -3 -7 -1 -7
5 0 8 -7 9 -25 2 -14 -5 -25 -7 -25 -4 0 3 -7 -2 -16 -10 -36 -36 -47 -5 -13
38 29 37 70 35 103 -5z m6631 25 c17 -7 50 -62 42 -71 -3 -2 -15 0 -26 7 -12
6 -25 8 -30 5 -5 -3 -11 0 -13 6 -6 17 -56 14 -78 -6 -18 -16 -18 -16 -13 4
11 44 72 72 118 55z m-4157 -45 c26 -9 25 -9 -5 -4 -19 2 -36 -1 -42 -9 -14
-17 -61 -27 -61 -13 0 5 -6 4 -14 -2 -8 -7 -32 -10 -55 -7 -24 2 -39 0 -35 -5
3 -5 10 -7 15 -4 5 4 16 2 25 -3 14 -8 11 -10 -12 -10 -16 0 -40 7 -54 16 -31
20 -53 24 -47 9 3 -7 11 -10 18 -9 8 2 11 0 7 -4 -16 -15 -69 -14 -75 1 -8 21
6 33 17 15 8 -13 11 -12 23 4 9 13 21 17 35 13 12 -3 25 -1 28 4 7 12 61 11
85 -1 15 -9 19 -7 19 7 0 11 3 14 8 7 10 -16 60 -26 67 -14 4 6 -8 11 -27 11
l-33 2 35 6 c19 4 39 5 43 3 5 -2 21 -8 35 -13z m19 15 c-3 -3 -12 -4 -19 -1
-8 3 -5 6 6 6 11 1 17 -2 13 -5z m-2059 -88 c16 -35 69 -124 118 -197 101
-154 137 -229 154 -317 20 -100 1 -250 -36 -287 -15 -14 -18 -14 -39 7 -21 21
-85 136 -85 152 0 4 -7 23 -16 44 -18 39 -20 46 -22 75 -1 11 -7 15 -13 11 -7
-4 -10 -1 -7 7 6 16 -18 69 -31 69 -5 0 -12 15 -15 33 -3 17 -15 46 -26 62
l-20 30 0 -49 c0 -26 11 -119 25 -205 13 -86 24 -165 24 -176 0 -11 3 -46 7
-77 10 -90 -11 -70 -36 35 -12 50 -28 97 -35 102 -7 6 -15 20 -19 33 -7 20 -9
21 -23 6 -14 -14 -18 -13 -37 3 -43 37 -83 61 -114 68 -36 7 -43 -6 -14 -27
27 -19 129 -156 129 -173 0 -21 -23 -5 -93 63 l-61 60 -24 -20 c-21 -17 -22
-18 -2 -9 30 15 33 14 33 -9 0 -11 -4 -20 -10 -20 -5 0 -10 5 -10 10 0 21 -20
9 -21 -12 0 -22 -1 -22 -11 2 -6 15 -8 81 -5 165 6 186 37 277 145 430 28 39
150 174 159 175 0 0 15 -29 31 -64z m1688 32 c-1 -19 -8 -24 -39 -26 -36 -3
-67 10 -67 29 0 4 24 10 53 12 28 2 53 4 53 5 1 1 1 -8 0 -20z m4096 -39 c115
-123 195 -259 223 -383 15 -67 19 -206 6 -206 -5 0 -9 -6 -8 -12 1 -33 -4 -49
-13 -43 -11 7 -14 4 -79 -54 -33 -30 -46 -37 -56 -28 -9 9 -1 26 38 77 28 36
60 74 71 84 l21 19 -30 -7 c-35 -9 -130 -65 -167 -99 -14 -13 -34 -27 -43 -31
-15 -5 -17 0 -13 48 2 30 1 53 -4 50 -4 -3 -8 -27 -8 -54 0 -42 -20 -155 -36
-200 -4 -12 -6 -12 -14 0 -10 16 -6 63 21 241 23 155 32 279 20 279 -12 0 -31
-57 -25 -74 3 -8 0 -17 -5 -21 -6 -3 -9 -11 -6 -16 8 -12 -12 -11 -38 2 l-22
12 20 -20 c11 -11 23 -19 28 -16 4 2 7 -1 7 -6 0 -14 -13 -14 -27 0 -8 8 -13
2 -19 -23 -4 -18 -7 -37 -6 -41 1 -4 -3 -18 -10 -30 -7 -12 -13 -24 -13 -27
-9 -61 -70 -184 -110 -223 l-29 -28 -25 63 c-32 85 -40 213 -16 294 23 79 52
133 163 309 53 82 102 167 110 187 8 21 20 38 26 38 6 0 36 -27 68 -61z
m-3615 5 c2 -6 -5 -22 -16 -35 -16 -20 -22 -22 -33 -11 -11 11 -10 12 3 7 10
-4 16 0 16 10 0 9 -9 15 -22 15 -26 0 -29 -37 -3 -46 10 -3 18 -10 18 -15 0
-14 -9 -11 -31 10 -16 15 -30 18 -61 13 -32 -4 -39 -2 -33 8 6 10 4 11 -6 4
-29 -18 -108 -26 -126 -12 -7 5 -14 5 -18 -2 -3 -5 -11 -10 -16 -10 -6 0 -7 5
-4 10 12 19 -27 24 -41 5 -8 -10 -14 -15 -14 -9 1 24 21 33 85 39 39 3 111 12
160 19 103 16 137 16 142 0z m1739 -31 c-10 -10 -19 5 -10 18 6 11 8 11 12 0
2 -7 1 -15 -2 -18z m131 2 c0 -8 -4 -15 -9 -15 -10 0 -11 14 -1 23 9 10 10 9
10 -8z m33 -6 c0 -5 5 -7 12 -3 7 4 8 3 4 -5 -6 -9 -11 -9 -22 0 -17 14 -18
19 -4 19 6 0 10 -5 10 -11z m-2713 -14 c1 -5 -11 -18 -29 -28 -27 -16 -33 -16
-46 -4 -12 13 -10 17 14 30 32 17 56 17 61 2z m393 3 c0 20 16 14 17 -8 1 -16
-4 -20 -33 -20 -19 0 -34 5 -34 10 0 6 -12 10 -26 10 -16 0 -23 -4 -18 -11 4
-7 -1 -10 -11 -7 -10 1 -20 8 -22 14 -3 8 13 12 47 11 27 0 53 3 57 7 4 3 10
1 15 -6 6 -10 8 -10 8 0z m-2496 -4 c20 -8 21 -40 1 -48 -16 -6 -35 22 -28 42
5 14 6 14 27 6z m2566 -4 c0 -5 -2 -10 -4 -10 -3 0 -8 5 -11 10 -3 6 -1 10 4
10 6 0 11 -4 11 -10z m2170 -5 c9 -10 9 -15 1 -15 -6 0 -11 -7 -11 -15 0 -8
-4 -15 -10 -15 -6 0 -6 9 0 24 7 20 6 26 -8 29 -15 4 -15 5 -1 6 9 0 22 -6 29
-14z m370 11 c0 -3 -4 -8 -10 -11 -5 -3 -10 -1 -10 4 0 6 5 11 10 11 6 0 10
-2 10 -4z m2088 -19 c4 -20 -25 -34 -40 -19 -15 15 -1 44 19 40 10 -2 19 -11
21 -21z m-6058 3 c0 -5 -4 -10 -10 -10 -5 0 -10 5 -10 10 0 6 5 10 10 10 6 0
10 -4 10 -10z m3640 -11 c0 -6 -4 -7 -10 -4 -5 3 -10 11 -10 16 0 6 5 7 10 4
6 -3 10 -11 10 -16z m-2340 1 c0 -5 -4 -10 -10 -10 -5 0 -10 5 -10 10 0 6 5
10 10 10 6 0 10 -4 10 -10z m2263 -10 c-3 -11 -10 -23 -16 -27 -5 -3 -8 -2 -5
3 3 5 8 17 11 27 9 24 16 22 10 -3z m117 -1 c0 -6 -4 -7 -10 -4 -5 3 -10 11
-10 16 0 6 5 7 10 4 6 -3 10 -11 10 -16z m340 11 c0 -5 -5 -10 -11 -10 -5 0
-7 5 -4 10 3 6 8 10 11 10 2 0 4 -4 4 -10z m-3380 -22 c23 -25 26 -48 8 -66
-18 -18 -45 -15 -78 10 -36 26 -38 42 -8 62 31 22 54 20 78 -6z m1078 6 c24
-7 29 -23 10 -42 -7 -7 -17 -8 -29 -2 -10 6 -20 6 -23 1 -3 -5 -41 -8 -83 -6
-43 1 -85 -1 -93 -5 -29 -14 -130 -21 -130 -9 0 6 7 8 15 5 9 -3 18 1 22 10 3
8 11 13 19 10 7 -3 14 -1 16 3 4 9 158 38 213 40 22 0 50 -2 63 -5z m-1455
-32 c16 -14 25 -72 11 -72 -4 0 -22 9 -41 21 -35 22 -85 20 -80 -3 1 -7 -4
-12 -11 -13 -7 0 -22 -11 -33 -25 l-20 -25 7 25 c28 103 105 146 167 92z
m4497 1 c34 -32 65 -99 50 -108 -6 -3 -10 0 -10 7 0 23 -56 65 -76 57 -11 -3
-22 -5 -26 -2 -4 2 -18 -3 -31 -12 -47 -30 -52 21 -6 59 39 33 61 33 99 -1z
m-1277 -22 c4 10 6 9 6 -4 1 -10 -6 -20 -14 -23 -8 -4 -12 -10 -9 -15 3 -5 -2
-6 -10 -3 -18 7 -22 24 -5 24 6 0 8 12 5 33 l-6 32 14 -29 c9 -20 15 -25 19
-15z m-2130 3 c-7 -3 -9 -12 -6 -20 8 -20 -31 -18 -48 3 -8 9 -9 14 -4 11 6
-4 17 -3 25 3 8 5 22 8 30 8 9 0 11 -2 3 -5z m387 -35 c0 -7 8 -18 18 -25 16
-12 16 -13 -3 -10 -11 2 -24 1 -30 -2 -18 -11 -140 -10 -152 0 -10 8 -13 6
-13 -6 0 -9 -8 -16 -20 -16 -12 0 -20 7 -20 16 0 14 3 14 15 4 13 -11 14 -10
10 2 -5 12 11 18 77 30 105 20 118 21 118 7z m1097 -96 c57 -130 68 -279 32
-424 -28 -108 -56 -171 -122 -272 -84 -128 -168 -207 -478 -452 -35 -27 -104
-91 -154 -140 -175 -174 -272 -355 -295 -554 -42 -370 283 -685 670 -651 47 4
106 13 133 20 l47 12 -6 37 c-3 20 -28 142 -54 271 -27 129 -44 237 -39 238 5
2 6 9 2 15 -4 7 1 5 12 -3 10 -8 20 -14 22 -12 8 5 46 1 40 -5 -4 -3 3 -11 15
-17 25 -13 29 -26 62 -191 60 -298 71 -376 56 -385 -12 -8 -11 -10 5 -10 19
-1 19 -1 2 -14 -10 -8 -14 -16 -9 -17 6 -2 4 -10 -4 -17 -11 -10 -14 -10 -14
0 0 9 -3 10 -8 2 -4 -6 -32 -14 -62 -17 -30 -4 -82 -12 -115 -18 -67 -13 -244
-5 -295 13 -8 3 -50 17 -93 31 -143 47 -304 169 -389 295 -19 29 -38 49 -42
45 -4 -4 -4 1 0 11 6 15 4 17 -6 11 -8 -5 -11 -4 -7 3 9 13 -2 44 -13 37 -12
-8 -49 138 -60 236 -20 193 44 407 171 581 71 95 216 230 354 327 211 149 318
240 397 339 155 192 215 371 206 615 -3 79 -1 124 5 120 5 -3 20 -30 34 -60z
m-3780 44 c30 -17 62 -60 69 -94 3 -16 0 -49 -7 -74 l-13 -44 -4 33 c-3 31 -4
32 -17 15 -11 -14 -16 -16 -26 -5 -7 6 -32 12 -54 12 -23 0 -45 3 -48 6 -4 4
-20 8 -36 9 -21 2 -32 -3 -39 -19 -9 -20 -10 -20 -21 8 -7 16 -9 42 -6 58 8
34 50 87 79 98 31 13 98 11 123 -3z m2427 -2 c2 -6 -2 -12 -10 -12 -7 0 -15 6
-18 12 -2 6 2 12 10 12 7 0 15 -6 18 -12z m1789 -25 c-15 -22 -30 -40 -34 -40
-12 0 -18 43 -9 59 8 14 9 14 10 1 0 -13 1 -13 10 0 8 13 10 13 10 0 0 -12 3
-11 17 3 25 25 25 21 -4 -23z m2693 24 c42 -20 74 -70 74 -115 0 -53 -13 -66
-41 -40 -24 22 -39 27 -39 13 0 -5 -27 -8 -59 -6 -42 2 -69 -2 -94 -15 l-35
-18 -7 33 c-22 118 90 201 201 148z m-4546 2 c0 -3 -4 -8 -10 -11 -5 -3 -10
-1 -10 4 0 6 5 11 10 11 6 0 10 -2 10 -4z m20 -16 c0 -5 -5 -10 -11 -10 -5 0
-7 5 -4 10 3 6 8 10 11 10 2 0 4 -4 4 -10z m-352 -32 c-7 -33 -47 -46 -56 -18
-3 9 2 11 17 7 14 -3 21 0 21 9 0 8 5 14 10 14 6 0 9 -5 8 -12z m2752 -5 c0 4
9 3 20 -3 11 -6 18 -15 15 -21 -9 -13 -25 -11 -22 4 1 6 -6 11 -15 9 -12 -2
-18 3 -18 15 0 15 2 16 10 3 5 -8 10 -11 10 -7z m-1845 -3 c-3 -5 -11 -10 -16
-10 -6 0 -7 5 -4 10 3 6 11 10 16 10 6 0 7 -4 4 -10z m1290 0 c3 -5 1 -10 -4
-10 -6 0 -11 5 -11 10 0 6 2 10 4 10 3 0 8 -4 11 -10z m55 0 c0 -5 -5 -10 -11
-10 -5 0 -7 5 -4 10 3 6 8 10 11 10 2 0 4 -4 4 -10z m46 1 c-4 -5 0 -12 6 -14
8 -4 9 -6 2 -6 -6 -1 -17 6 -24 14 -10 12 -9 15 4 15 10 0 15 -4 12 -9z
m-1896 -31 c0 -5 -5 -10 -11 -10 -5 0 -7 5 -4 10 3 6 8 10 11 10 2 0 4 -4 4
-10z m550 0 c0 -5 -5 -10 -11 -10 -5 0 -7 5 -4 10 3 6 8 10 11 10 2 0 4 -4 4
-10z m130 -2 c0 -7 3 -23 6 -36 5 -18 3 -21 -11 -15 -13 4 -16 3 -11 -5 5 -8
0 -12 -13 -12 -12 0 -21 5 -21 10 0 6 -6 10 -14 10 -16 0 -27 22 -18 38 4 5
21 12 37 15 17 2 33 5 38 6 4 0 7 -5 7 -11z m915 2 c-3 -5 -14 -10 -23 -10
-15 0 -15 2 -2 10 20 13 33 13 25 0z m-1560 -10 c3 -5 2 -10 -4 -10 -5 0 -13
5 -16 10 -3 6 -2 10 4 10 5 0 13 -4 16 -10z m545 0 c-12 -7 -12 -12 -2 -22 15
-15 16 -28 1 -28 -5 0 -7 5 -4 10 8 14 -18 13 -50 -2 -22 -10 -28 -9 -36 3 -5
8 -9 9 -9 4 0 -10 -25 -13 -125 -18 -22 -1 -43 -6 -47 -12 -5 -6 -8 -5 -8 3 0
6 -5 12 -11 12 -5 0 -7 -5 -4 -10 4 -6 -5 -10 -22 -8 -16 1 -34 -1 -41 -6 -8
-5 -12 0 -12 15 0 16 5 20 20 16 11 -3 20 -2 20 2 0 7 109 28 192 36 37 4 49
1 57 -13 6 -9 11 -12 11 -7 0 6 10 12 22 12 13 1 24 7 26 13 2 5 11 10 20 10
15 0 15 -2 2 -10z m963 -24 c12 1 13 0 2 -3 -8 -2 -15 -9 -15 -15 0 -5 7 -8
15 -5 8 4 17 2 20 -3 4 -6 -8 -10 -25 -10 -24 0 -31 4 -27 15 4 8 2 17 -3 20
-6 4 -10 14 -10 23 1 14 3 14 13 -3 7 -12 20 -20 30 -19z m47 4 c0 -5 -5 -10
-11 -10 -5 0 -7 5 -4 10 3 6 8 10 11 10 2 0 4 -4 4 -10z m60 -10 c0 -13 1 -13
10 0 5 8 10 11 10 5 0 -5 5 -3 10 5 8 12 10 12 10 1 0 -9 7 -11 22 -8 23 6 48
-8 48 -27 0 -6 -5 -4 -10 4 -9 15 -70 22 -70 8 0 -15 -47 -8 -63 10 -14 16
-14 17 9 17 15 0 24 -6 24 -15z m-43 -32 c-3 -8 -6 -5 -6 6 -1 11 2 17 5 13 3
-3 4 -12 1 -19z m190 16 c-3 -3 -12 -4 -19 -1 -8 3 -5 6 6 6 11 1 17 -2 13 -5z
m1313 -138 c85 -43 193 -130 253 -204 62 -76 121 -177 113 -191 -3 -5 -1 -11
6 -13 14 -5 -38 -60 -73 -78 -18 -10 -20 -9 -15 7 3 10 1 25 -5 33 -8 12 -9
10 -4 -7 4 -16 0 -25 -14 -33 -18 -9 -24 -5 -46 30 -14 22 -23 45 -20 50 4 6
-4 14 -17 19 -13 5 -34 28 -48 50 -14 23 -30 39 -37 37 -7 -3 -10 1 -7 7 2 7
-7 24 -21 37 -14 13 -25 19 -25 13 0 -6 7 -13 15 -17 8 -3 15 -10 15 -16 0 -6
-7 -4 -16 5 -9 9 -22 14 -29 11 -7 -2 -12 1 -11 7 1 13 -121 133 -128 126 -2
-2 20 -38 50 -79 76 -104 354 -657 305 -604 -12 12 -112 180 -199 335 -121
214 -232 382 -232 352 0 -6 7 -16 15 -23 9 -7 20 -32 26 -56 6 -24 16 -44 21
-44 5 0 6 -5 2 -12 -4 -7 -8 -25 -8 -42 -1 -17 -7 -31 -16 -33 -13 -4 -13 -3
0 7 13 10 12 11 -3 6 -10 -3 -24 -6 -30 -6 -7 -1 0 -8 16 -16 15 -8 27 -17 27
-20 0 -3 -4 -3 -9 0 -5 4 -12 0 -14 -6 -3 -8 -6 -6 -6 5 -1 10 -5 16 -9 13 -5
-3 -21 2 -37 10 -25 13 -26 13 -14 -2 16 -19 58 -38 78 -35 7 1 10 -2 7 -8 -4
-5 4 -11 16 -13 12 -2 24 -10 26 -18 4 -12 2 -13 -9 -4 -8 6 -27 14 -42 16
-26 5 -27 4 -12 -12 8 -9 15 -22 15 -28 0 -6 8 -16 18 -21 9 -6 14 -11 9 -11
-14 0 25 -50 40 -50 8 0 11 -5 7 -11 -3 -6 0 -15 7 -20 9 -6 10 -9 2 -9 -6 0
-19 7 -27 16 -9 8 -16 11 -16 5 0 -5 5 -13 10 -16 6 -4 8 -10 5 -15 -6 -10
-58 10 -86 33 -10 9 -19 12 -19 7 0 -7 -6 -7 -19 0 -24 13 -31 13 -31 0 0 -14
57 -70 64 -63 3 4 6 2 6 -4 0 -16 -28 -24 -34 -10 -2 7 -5 3 -6 -8 -1 -17 -3
-16 -16 7 -9 17 -20 25 -29 22 -9 -4 -17 6 -24 33 -31 117 -39 185 -45 378 -4
136 -11 229 -21 265 -8 30 -15 56 -15 56 0 6 326 -119 370 -140z m-3935 112
c-25 -110 -24 -103 -40 -454 -3 -67 -10 -122 -19 -140 -18 -35 -70 -68 -96
-61 -11 3 -24 -1 -30 -8 -16 -20 -68 -24 -75 -7 -3 8 -3 17 0 20 3 3 5 0 5 -6
0 -17 35 -15 50 3 11 14 10 14 -14 5 -22 -8 -26 -7 -22 2 3 7 9 20 12 30 3 9
16 19 28 22 13 3 22 14 23 27 2 21 1 21 -14 3 -11 -14 -11 -12 2 9 20 35 13
45 -17 25 -23 -15 -48 -14 -48 3 0 4 7 6 15 3 8 -4 15 -1 15 5 0 6 7 11 15 11
8 0 15 4 15 9 0 5 15 15 33 22 47 20 84 56 70 70 -8 8 -11 6 -10 -7 1 -11 -4
-19 -13 -19 -8 0 -20 -7 -27 -15 -9 -10 -12 -11 -13 -2 0 6 -7 12 -15 12 -8 0
-15 7 -15 16 0 14 1 14 16 0 19 -20 25 -20 18 -2 -9 23 -32 27 -44 8 -8 -15
-11 -15 -20 -2 -6 10 -10 11 -10 3 0 -7 -4 -13 -8 -13 -5 0 -7 21 -6 48 3 60
3 59 12 46 4 -7 16 8 29 38 16 35 18 46 8 38 -8 -7 -15 -19 -15 -27 0 -8 -4
-11 -10 -8 -13 8 -113 -147 -220 -340 -46 -82 -95 -168 -109 -190 -23 -37 -58
-75 -68 -75 -6 0 194 384 255 490 30 52 64 105 75 117 33 37 12 37 -27 0 -20
-19 -36 -32 -36 -28 0 3 -10 -9 -21 -26 -12 -18 -25 -33 -29 -33 -4 0 -7 -6
-6 -12 0 -7 -3 -14 -9 -15 -5 -1 -12 -10 -16 -20 -6 -15 -8 -15 -8 -2 -1 9 8
27 18 41 l19 24 -31 2 c-24 2 -28 0 -17 -8 12 -8 9 -15 -19 -44 -19 -19 -39
-32 -44 -29 -6 4 -7 1 -2 -6 4 -8 -4 -25 -22 -44 -16 -18 -42 -51 -57 -74 -33
-50 -41 -54 -31 -16 l7 28 -23 -25 c-21 -25 -22 -25 -16 -2 3 12 0 22 -5 22
-6 0 -21 12 -34 26 -13 14 -29 22 -34 19 -15 -9 -12 1 16 57 70 138 200 268
340 339 53 26 339 134 367 138 4 1 5 -9 2 -21z m1022 7 c0 -18 -19 -15 -25 3
-2 7 3 12 11 12 7 0 14 -7 14 -15z m-32 -23 c-8 -8 -25 10 -19 20 4 6 9 5 15
-3 4 -7 6 -15 4 -17z m1488 21 c-7 -2 -19 -2 -25 0 -7 3 -2 5 12 5 14 0 19 -2
13 -5z m-1602 -30 c12 -16 12 -17 -2 -6 -9 7 -20 9 -24 5 -5 -4 -5 -1 -1 6 9
16 11 15 27 -5z m643 0 c4 -9 1 -21 -5 -27 -9 -8 -10 -8 -5 2 8 14 -10 17 -19
3 -3 -6 -14 -8 -25 -6 -11 2 -20 1 -20 -3 0 -4 -33 -7 -73 -7 -39 0 -98 -4
-131 -8 -56 -8 -91 1 -72 20 4 4 11 1 16 -7 8 -12 10 -12 10 -1 0 7 6 11 14 8
8 -3 16 -1 18 4 2 6 36 11 76 12 39 1 72 5 72 9 0 3 22 6 49 6 39 1 51 -3 54
-16 3 -12 5 -11 6 6 1 26 26 30 35 5z m846 -13 c0 17 13 5 16 -15 1 -10 -6
-15 -22 -15 -20 0 -24 5 -24 28 1 26 1 26 15 8 10 -13 15 -15 15 -6z m45 -39
c-10 -9 -24 21 -17 37 4 12 7 10 14 -8 5 -13 6 -25 3 -29z m41 30 c-3 -5 1
-14 9 -21 13 -11 14 -10 9 4 -3 9 -1 16 5 16 6 0 11 -9 11 -20 0 -24 -35 -28
-44 -4 -9 23 -7 34 5 34 5 0 8 -4 5 -9z m-3472 -17 c3 -8 2 -12 -4 -9 -6 3
-10 10 -10 16 0 14 7 11 14 -7z m3559 9 c-7 -2 -13 -13 -13 -24 0 -23 -15 -25
-24 -4 -3 8 -1 15 5 15 6 0 7 5 4 10 -3 6 4 10 17 9 13 0 17 -3 11 -6z m-1375
-21 c3 -11 -21 -12 -56 -3 -2 1 0 6 3 12 9 14 47 7 53 -9z m1420 -7 c-6 -14
-13 -24 -14 -22 -6 6 9 47 17 47 5 0 3 -11 -3 -25z m-1518 -5 c-6 -11 -18 -20
-26 -20 -8 0 -13 4 -9 9 3 5 0 11 -7 14 -7 2 -2 2 10 0 15 -2 21 0 17 7 -3 5
1 10 10 10 13 0 14 -4 5 -20z m40 -1 c0 -5 -4 -9 -10 -9 -5 0 -10 7 -10 16 0
8 5 12 10 9 6 -3 10 -10 10 -16z m1455 11 c-3 -5 -10 -10 -16 -10 -5 0 -9 5
-9 10 0 6 7 10 16 10 8 0 12 -4 9 -10z m95 -20 c-6 -11 -13 -20 -16 -20 -2 0
0 9 6 20 6 11 13 20 16 20 2 0 0 -9 -6 -20z m-1123 -20 c2 -17 -4 -20 -38 -18
-44 1 -49 22 -5 24 14 1 29 4 33 8 9 8 9 9 10 -14z m-84 -9 c-3 -14 -18 -20
-56 -25 -77 -9 -87 -8 -87 10 0 10 6 14 15 10 8 -3 15 0 15 6 0 7 7 3 15 -8
12 -14 14 -15 9 -2 -6 17 -4 17 73 25 16 2 20 -2 16 -16z m-3068 -34 c20 -28
20 -54 1 -38 -18 15 -54 22 -61 12 -2 -5 -17 -6 -31 -3 -20 4 -25 2 -19 -8 6
-9 4 -11 -5 -5 -7 4 -16 2 -21 -6 -7 -11 -9 -9 -9 6 0 27 27 64 54 74 27 11
72 -5 91 -32z m4002 26 c-4 -3 -2 -12 4 -20 13 -14 9 -16 -15 -7 -9 3 -13 11
-9 18 4 6 -1 5 -10 -3 -15 -12 -17 -11 -17 3 0 11 9 16 27 16 14 0 23 -3 20
-7z m2901 -10 c24 -20 40 -73 24 -73 -6 0 -14 5 -17 10 -4 6 -10 8 -15 5 -5
-3 -24 4 -44 16 -35 20 -63 18 -50 -3 5 -7 2 -8 -6 -3 -10 6 -12 4 -7 -8 4
-10 2 -17 -4 -17 -17 0 -1 53 23 73 11 9 33 17 48 17 15 0 37 -8 48 -17z
m-4617 -29 c17 -16 15 -54 -3 -54 -6 0 -8 -7 -4 -15 3 -8 2 -15 -3 -15 -5 0
-11 -9 -14 -20 -3 -11 0 -20 6 -20 8 0 7 -4 -2 -9 -8 -5 -10 -14 -6 -22 5 -8
5 -11 0 -7 -4 4 -15 -2 -24 -14 -16 -19 -20 -20 -46 -7 -16 8 -40 30 -53 49
-69 102 58 216 149 134z m589 24 c0 -9 3 -9 12 0 16 16 28 15 28 -3 0 -10 -11
-16 -32 -17 -46 -2 -52 -3 -65 -11 -8 -5 -11 -1 -10 13 1 22 23 27 30 8 3 -9
7 -7 12 5 8 19 25 23 25 5z m1180 -4 c0 -2 -7 -4 -15 -4 -8 0 -15 4 -15 10 0
5 7 7 15 4 8 -4 15 -8 15 -10z m45 6 c3 -5 1 -10 -4 -10 -6 0 -11 5 -11 10 0
6 2 10 4 10 3 0 8 -4 11 -10z m577 -10 c31 -24 45 -94 28 -144 -21 -66 -130
-84 -130 -21 0 20 -5 25 -25 25 -55 0 -58 79 -5 131 35 36 94 40 132 9z
m-1085 -12 c-3 -12 -1 -30 5 -41 9 -17 8 -19 -6 -14 -13 5 -15 3 -7 -12 23
-42 -132 -239 -283 -360 -39 -31 -107 -82 -151 -114 -405 -293 -601 -561 -651
-887 -41 -276 19 -504 187 -710 92 -113 179 -184 304 -246 146 -72 219 -87
415 -88 137 0 167 3 253 27 157 42 264 104 379 218 78 78 103 112 135 176 l38
79 29 -17 c36 -22 50 -15 41 19 -6 23 -4 24 10 12 9 -7 14 -19 11 -26 -3 -7 0
-16 7 -20 7 -4 9 -4 5 1 -4 4 -3 14 3 22 9 10 8 18 -2 31 -12 16 -12 16 5 1
16 -15 16 -19 0 -65 -31 -93 -106 -222 -172 -294 -178 -195 -439 -299 -753
-298 -157 0 -265 22 -407 82 -259 109 -475 344 -576 627 -44 123 -60 233 -53
362 11 181 44 310 119 462 127 255 296 429 690 712 106 75 230 174 277 220 47
45 90 83 94 83 5 0 6 4 3 9 -3 4 3 16 14 26 11 10 20 24 20 32 0 7 5 13 11 13
7 0 9 -9 6 -22z m520 -20 c-3 -8 -6 -5 -6 6 -1 11 2 17 5 13 3 -3 4 -12 1 -19z
m-947 -22 c0 -10 -18 -17 -57 -21 -92 -11 -106 -11 -111 4 -4 11 2 13 27 8 23
-5 30 -3 25 5 -5 7 0 9 14 6 12 -4 22 -2 22 3 0 5 18 9 40 9 28 0 40 -4 40
-14z m-175 -44 c-8 -9 -25 20 -18 31 3 5 10 2 15 -7 6 -10 7 -20 3 -24z m-35
18 c0 -5 -2 -10 -4 -10 -3 0 -8 5 -11 10 -3 6 -1 10 4 10 6 0 11 -4 11 -10z
m224 -69 c3 -5 -6 -11 -19 -14 -14 -2 -28 0 -32 6 -3 6 -1 7 5 3 7 -4 12 -2
12 3 0 13 27 15 34 2z m-70 -10 c4 -5 -3 -7 -14 -4 -23 6 -26 13 -6 13 8 0 17
-4 20 -9z m-71 -8 c-7 -2 -19 -2 -25 0 -7 3 -2 5 12 5 14 0 19 -2 13 -5z
m-1214 -237 c85 -192 278 -347 542 -435 l77 -26 -50 -85 c-43 -72 -78 -145
-118 -247 -9 -21 -9 -21 -87 17 -43 21 -93 52 -110 69 -18 16 -47 38 -65 48
-17 10 -45 30 -61 45 -34 30 -51 29 -24 0 19 -21 23 -37 6 -26 -12 7 -2 -36
10 -46 8 -6 26 -36 46 -75 14 -26 12 -25 -19 10 -20 22 -36 45 -36 51 0 7 -7
14 -15 18 -9 3 -12 12 -8 22 4 11 2 15 -4 11 -12 -7 -76 150 -94 230 -18 84
-39 283 -43 433 l-5 145 18 -55 c10 -30 28 -77 40 -104z m2479 -167 l-4 -300
40 7 c65 10 204 52 283 86 187 77 346 228 423 401 l19 42 0 -105 c1 -127 -22
-346 -43 -415 -23 -76 -49 -123 -74 -136 -16 -9 -21 -18 -16 -33 4 -17 3 -18
-5 -6 -10 13 -12 13 -21 0 -5 -8 -10 -20 -10 -27 0 -6 -4 -15 -10 -18 -6 -3
-7 1 -4 9 3 9 3 16 0 16 -9 0 -64 -40 -88 -62 -28 -27 -176 -99 -183 -88 -3 5
-5 60 -4 122 1 133 -12 195 -44 207 -32 12 -35 -4 -36 -155 l-1 -131 -42 -6
c-23 -3 -66 -18 -97 -34 -46 -23 -60 -37 -82 -79 -25 -49 -43 -58 -50 -24 -4
16 32 99 43 100 11 0 -5 -45 -21 -57 -9 -7 -11 -13 -5 -13 6 0 25 18 43 40
l32 40 -34 0 c-18 0 -37 -3 -41 -7 -3 -4 -30 -6 -59 -5 -28 2 -47 -1 -40 -5 6
-4 -57 -7 -139 -6 -148 2 -152 3 -233 38 -45 19 -89 35 -97 35 -9 0 -20 6 -25
13 -11 13 -63 203 -63 228 0 12 48 14 300 14 165 0 300 -3 300 -8 0 -4 -11 -5
-25 -1 -60 15 -155 -50 -170 -115 -7 -34 15 -85 44 -101 53 -28 151 4 195 63
20 28 21 36 18 403 -4 345 -3 374 13 374 16 0 17 -24 13 -301z m-2878 281 c0
-13 -11 -13 -30 0 -12 8 -11 10 8 10 12 0 22 -4 22 -10z m-1453 -97 c37 -49
111 -130 163 -182 52 -52 82 -86 66 -76 -16 10 -45 27 -65 38 -61 35 -148 115
-181 167 -28 43 -66 140 -55 140 2 0 34 -39 72 -87z m6933 57 c-19 -66 -58
-128 -120 -191 -62 -63 -141 -115 -154 -102 -3 3 32 42 79 85 47 44 110 115
141 159 30 43 57 79 59 79 2 0 0 -14 -5 -30z m-1450 16 c0 -2 -8 -10 -17 -17
-16 -13 -17 -12 -4 4 13 16 21 21 21 13z m-3162 -103 l27 -23 -27 -22 c-15
-13 -29 -32 -31 -43 -3 -17 -6 -15 -17 13 -6 17 -15 32 -18 32 -4 0 -14 4 -22
10 -12 7 -10 12 12 29 14 11 29 33 34 48 l8 28 3 -25 c2 -14 16 -35 31 -47z
m2254 10 c25 -23 23 -50 -7 -69 -24 -16 -27 -16 -45 1 -25 23 -25 40 0 65 24
24 28 25 52 3z m-3552 -57 c0 -3 -4 -8 -10 -11 -5 -3 -10 -1 -10 4 0 6 5 11
10 11 6 0 10 -2 10 -4z m519 -67 c-13 -10 -31 -19 -39 -19 -9 0 -5 7 10 17 14
9 29 24 34 32 8 13 10 13 14 2 3 -8 -6 -22 -19 -32z m1085 -25 c18 -26 18 -26
-2 -46 -19 -19 -21 -19 -45 -3 l-26 17 21 29 c12 16 24 29 27 29 3 0 14 -12
25 -26z m1434 -44 c17 -14 17 -17 -15 -47 l-34 -31 -9 24 c-5 13 -16 24 -25
24 -21 0 -19 17 4 30 11 5 23 20 27 32 6 21 7 21 20 2 8 -10 22 -26 32 -34z
m-3337 -270 c6 -63 15 -135 20 -160 5 -25 10 -61 13 -80 2 -19 6 -42 10 -51 4
-9 8 -27 10 -41 1 -13 5 -29 9 -35 18 -29 7 -101 -14 -88 -5 3 -7 -2 -4 -12 3
-10 -2 -2 -11 17 -9 19 -17 47 -18 62 0 14 -4 24 -7 23 -8 -6 -32 93 -25 104
3 5 2 11 -4 13 -31 10 -37 320 -8 458 l13 65 2 -80 c2 -44 8 -132 14 -195z
m6394 232 c-11 -12 -35 -10 -35 2 0 20 12 27 27 14 7 -6 11 -13 8 -16z m-7325
9 c0 -5 -7 -11 -15 -15 -15 -5 -20 5 -8 17 9 10 23 9 23 -2z m6400 -236 c0
-125 -17 -285 -31 -285 -5 0 -6 -7 -3 -15 4 -8 1 -15 -6 -15 -7 0 -10 -7 -6
-16 3 -9 -3 -28 -14 -44 -11 -15 -20 -34 -21 -42 0 -7 -4 -4 -9 7 -8 18 -9 17
-9 -7 -1 -16 4 -28 12 -28 7 0 8 -3 2 -8 -18 -13 -37 -60 -30 -74 3 -7 0 -5
-8 4 -8 10 -18 14 -22 10 -5 -4 -5 2 -1 13 55 149 101 408 110 615 3 63 6 120
7 125 1 6 7 -19 15 -55 7 -36 13 -119 14 -185z m-6101 160 c15 -14 19 -23 10
-22 -17 3 -89 46 -89 54 0 13 57 -10 79 -32z m6755 23 c-3 -5 -33 -22 -67 -39
-48 -23 -56 -25 -37 -9 39 33 78 57 94 57 9 0 13 -4 10 -9z m-3350 -155 c11
-37 56 -255 56 -273 0 -14 -11 -19 -52 -23 -29 -2 -54 -4 -56 -2 -1 1 -14 49
-28 106 -39 164 -38 152 -15 139 17 -9 19 -8 15 5 -4 8 -1 15 5 15 6 0 11 6
11 13 0 8 10 19 23 25 31 15 35 14 41 -5z m-3029 -33 c68 -42 115 -157 118
-292 1 -66 -5 -76 -51 -80 -23 -2 -31 -6 -27 -17 4 -11 3 -12 -10 -1 -21 17
-19 1 3 -24 17 -21 17 -21 -5 -2 -13 11 -23 15 -23 11 0 -4 -9 0 -20 10 -11
10 -20 22 -20 26 0 4 -10 19 -23 33 -13 13 -37 52 -55 87 l-32 62 0 -60 c0
-79 20 -141 64 -203 20 -28 34 -56 30 -62 -4 -6 -3 -8 3 -5 6 4 18 -2 28 -13
17 -18 16 -22 -1 -19 -4 0 -10 -3 -13 -8 -3 -5 -54 -1 -120 10 l-114 20 -20
46 c-29 63 -30 240 -3 321 33 97 89 162 155 180 41 11 100 2 136 -20z m6064
20 c76 -21 149 -123 172 -238 17 -91 2 -252 -29 -300 -5 -7 -52 -19 -108 -27
-54 -8 -114 -19 -132 -24 -18 -5 -30 -6 -27 -1 3 4 0 10 -6 12 -6 2 10 26 36
53 53 58 83 109 101 180 16 59 18 135 4 135 -5 0 -10 -8 -10 -18 0 -21 -63
-123 -101 -163 -13 -14 -29 -24 -35 -22 -7 2 -11 -4 -10 -13 0 -9 -6 -19 -14
-21 -13 -4 -13 -3 0 6 9 7 10 11 3 11 -6 0 -15 -4 -18 -10 -11 -17 -35 -11
-35 9 0 10 -7 21 -15 25 -9 3 -12 12 -9 21 5 11 0 18 -13 21 -20 6 -20 6 -1
112 22 124 47 183 93 218 54 41 98 50 154 34z m-6614 -41 c5 -21 17 -35 41
-46 42 -21 44 -39 3 -48 -23 -5 -35 -16 -45 -41 -17 -40 -44 -46 -44 -10 0 26
-23 56 -44 56 -7 0 -21 6 -31 14 -18 13 -17 15 22 25 32 9 42 17 48 39 14 58
39 63 50 11z m7091 -2 c6 -20 22 -37 42 -47 41 -19 40 -28 -3 -46 -26 -11 -37
-22 -42 -44 -6 -31 -23 -51 -23 -28 0 9 -3 9 -10 -2 -8 -12 -10 -10 -10 8 0
37 -17 60 -55 72 -44 14 -41 33 5 40 29 4 36 10 44 40 10 35 25 54 36 44 3 -3
10 -20 16 -37z m-5358 3 c18 -11 40 -36 48 -55 17 -42 17 -47 1 -69 -12 -16
-14 -16 -35 4 -12 11 -22 16 -22 11 0 -5 -13 -3 -28 4 -22 11 -74 14 -109 6
-2 -1 -5 0 -6 2 -2 1 -11 -4 -20 -12 -15 -12 -17 -11 -17 3 0 28 50 93 83 110
43 21 66 20 105 -4z m3725 -29 c20 -22 37 -49 37 -61 0 -18 -4 -20 -42 -13
-61 11 -110 8 -145 -11 -35 -18 -43 -13 -43 26 0 40 15 65 53 89 47 29 93 19
140 -30z m-3615 -176 c30 -25 47 -61 32 -70 -4 -3 -13 2 -20 10 -7 8 -21 15
-32 15 -10 0 -17 4 -14 9 9 14 -64 2 -90 -15 -19 -13 -24 -14 -24 -3 1 31 60
79 96 79 13 0 36 -11 52 -25z m3474 6 c26 -13 57 -66 45 -78 -3 -3 -13 2 -22
11 -27 27 -55 39 -56 24 0 -10 -2 -10 -6 0 -3 9 -13 6 -36 -10 -18 -12 -35
-27 -39 -33 -4 -5 -8 2 -8 16 0 33 33 77 63 81 27 5 26 5 59 -11z m-3972 -176
c211 -34 282 -53 361 -99 195 -114 278 -301 238 -533 -12 -67 -23 -82 -27 -34
-3 42 -39 177 -57 214 -8 17 -24 43 -35 57 -19 25 -19 25 -34 5 -13 -17 -15
-18 -16 -3 0 9 -5 20 -12 24 -7 4 -8 3 -4 -4 5 -8 0 -12 -13 -12 -12 0 -21 6
-21 14 0 10 -8 13 -27 10 l-28 -4 25 16 c14 8 18 13 9 10 -9 -2 -26 2 -38 11
-12 8 -27 13 -34 10 -6 -2 -23 4 -36 14 -13 10 -28 16 -34 12 -5 -3 -7 -1 -4
4 4 6 -19 28 -51 50 -88 61 -91 61 -28 -3 101 -102 223 -301 198 -326 -7 -7
-17 2 -33 33 -61 122 -161 244 -259 318 -45 33 -45 33 -12 2 33 -32 41 -47 20
-36 -7 4 -4 -2 8 -12 22 -20 28 -51 10 -49 -6 1 -11 -3 -11 -9 0 -5 3 -9 8 -7
4 1 7 -2 7 -8 0 -13 -36 -31 -46 -22 -5 4 9 -13 31 -38 22 -24 46 -50 53 -58
25 -28 2 -22 -28 8 -3 3 -20 14 -39 24 -52 29 -28 2 54 -60 74 -55 94 -75 56
-54 -19 10 -71 32 -81 35 -3 0 -16 7 -28 14 -27 14 -40 8 -24 -12 6 -7 11 -22
11 -32 -1 -11 2 -30 4 -42 3 -13 4 -23 2 -23 -10 0 -85 111 -113 166 -16 32
-41 95 -55 140 -26 83 -67 277 -67 319 l0 23 48 -18 c26 -10 94 -25 152 -35z
m2771 33 c1 -7 1 -23 1 -35 -1 -13 3 -23 8 -23 5 0 14 -10 21 -21 9 -18 6 -17
-25 7 -33 26 -34 30 -19 46 9 10 14 18 12 19 -2 0 -19 2 -38 5 -50 6 -51 14
-3 14 26 0 43 -5 43 -12z m1773 -30 c-17 -120 -57 -297 -80 -351 -31 -76 -95
-187 -107 -187 -4 0 -6 -4 -2 -9 3 -5 1 -12 -4 -15 -10 -7 -9 20 2 30 10 10
-12 34 -32 34 -14 1 -14 2 2 11 9 5 17 14 17 19 0 5 -15 1 -32 -10 -40 -23
-160 -75 -135 -57 10 6 43 28 72 47 46 30 125 117 125 137 0 4 -15 -7 -32 -24
-63 -61 -123 -113 -131 -113 -4 0 15 23 42 50 34 34 49 56 45 68 -4 12 -3 14
4 4 7 -10 12 -8 24 10 8 13 15 27 16 33 0 5 9 13 19 17 17 7 16 8 -2 7 -40 -2
-47 1 -42 20 3 14 0 17 -14 14 -11 -3 -19 0 -19 6 0 7 6 9 13 5 6 -4 9 -4 5 1
-4 4 -3 15 4 24 7 9 1 6 -11 -5 -19 -18 -21 -25 -12 -40 6 -11 11 -16 11 -11
0 4 8 -1 18 -10 10 -10 16 -27 14 -37 -4 -16 -7 -17 -16 -4 -11 15 -17 18 -37
18 -6 0 -8 8 -4 19 3 11 0 23 -6 27 -16 9 -93 -75 -156 -171 -42 -63 -64 -104
-116 -215 l-16 -35 6 35 c8 44 58 173 86 220 27 46 88 121 156 194 47 50 49
62 3 19 -7 -7 -20 -13 -28 -13 -8 0 -13 -5 -11 -12 1 -7 -7 -12 -17 -13 -11 0
-20 -6 -22 -13 -1 -7 0 -8 3 -2 2 5 9 10 15 10 7 0 7 -5 -1 -13 -6 -8 -26 -13
-45 -12 -28 0 -33 -2 -24 -12 6 -8 8 -16 4 -20 -3 -3 -6 -2 -6 4 0 6 -9 13
-19 16 -20 5 -66 -37 -57 -52 3 -5 -7 -7 -22 -5 -14 1 -32 -2 -39 -8 -18 -15
-16 -3 3 16 8 9 11 16 5 16 -5 0 -13 -5 -16 -10 -4 -6 -11 -8 -16 -5 -5 4 -9
-1 -9 -9 0 -18 -16 -21 -25 -6 -24 39 -105 -124 -119 -242 -12 -95 -29 -73
-41 52 -8 84 15 207 51 268 39 66 100 130 168 174 84 54 162 77 365 104 24 4
80 17 125 29 112 31 107 32 100 -17z m-1669 25 c-11 -3 -24 -9 -29 -14 -14
-12 -43 -11 -52 2 -4 7 0 9 12 5 11 -3 26 -1 34 4 8 5 24 9 35 9 l20 -1 -20
-5z m-141 -11 c3 -5 -1 -9 -9 -9 -8 0 -12 4 -9 9 3 4 7 8 9 8 2 0 6 -4 9 -8z
m-361 -23 c108 -16 223 -75 306 -157 90 -89 140 -190 156 -317 10 -76 -25
-263 -46 -250 -5 4 -8 -3 -6 -14 1 -11 -1 -19 -6 -18 -4 1 -15 -12 -26 -28
-19 -32 -89 -110 -76 -85 5 8 -5 3 -22 -12 -16 -16 -32 -28 -35 -28 -3 0 -8
18 -12 40 -5 33 -1 49 23 92 59 107 63 217 11 327 -110 232 -455 306 -622 134
-61 -63 -81 -106 -82 -173 -1 -98 36 -175 109 -230 l30 -22 -54 7 c-30 3 -74
18 -98 32 -24 13 -43 22 -43 17 0 -4 -9 1 -20 11 -11 10 -18 20 -16 23 3 2
-11 23 -29 47 -41 55 -57 101 -59 174 -1 76 7 113 44 187 39 80 111 145 215
195 115 55 218 69 358 48z m452 -19 c3 -5 1 -10 -4 -10 -6 0 -11 5 -11 10 0 6
2 10 4 10 3 0 8 -4 11 -10z m-3285 -41 c-7 -11 -14 -18 -17 -15 -3 3 0 12 7
21 18 21 23 19 10 -6z m-245 1 c3 -6 -1 -7 -9 -4 -18 7 -21 14 -7 14 6 0 13
-4 16 -10z m-572 -69 c28 -11 67 -49 67 -65 0 -7 -3 -8 -8 -1 -18 26 -87 41
-137 31 -11 -3 -23 -5 -27 -5 -5 -1 -8 -7 -8 -15 0 -7 -6 -19 -14 -25 -12 -10
-14 -9 -10 6 8 28 28 51 60 68 34 17 44 18 77 6z m6971 -6 c28 -13 63 -52 54
-60 -2 -2 -24 7 -49 19 -51 26 -91 26 -120 0 -10 -9 -19 -13 -19 -7 0 12 39
48 60 56 25 9 41 8 74 -8z m-894 1 c0 -3 -4 -8 -10 -11 -5 -3 -10 -1 -10 4 0
6 5 11 10 11 6 0 10 -2 10 -4z m-3983 -288 c117 -179 146 -227 198 -319 26
-46 76 -130 112 -186 38 -60 62 -107 57 -114 -5 -8 -3 -9 6 -4 10 6 12 4 7 -9
-5 -11 -3 -15 5 -10 8 5 9 2 5 -10 -4 -9 -3 -15 2 -11 13 7 61 -82 54 -100 -7
-19 -23 -20 -23 -2 0 8 -10 22 -21 33 -22 19 -22 19 -9 -5 10 -19 10 -22 -2
-15 -7 5 -21 9 -31 9 -14 0 -29 25 -62 108 -24 59 -46 121 -50 137 -4 17 -10
30 -15 30 -9 0 -26 44 -29 77 -2 23 -71 -18 -71 -41 -1 -20 -1 -20 -11 -3 -8
14 -14 15 -24 7 -10 -9 -19 -6 -34 9 -23 23 -51 28 -51 10 0 -7 -9 -9 -22 -6
-12 3 -29 2 -39 -3 -25 -14 -31 35 -23 172 6 106 -7 312 -22 351 -3 9 -2 17 4
17 5 0 46 -55 89 -122z m2818 105 c-14 -37 -25 -148 -30 -310 -3 -91 -8 -169
-12 -172 -3 -3 -3 3 0 14 7 18 6 19 -6 3 -8 -10 -17 -15 -20 -12 -3 4 -22 3
-42 0 -26 -5 -35 -12 -35 -27 0 -19 -5 -21 -50 -17 l-49 3 5 -36 c7 -39 -16
-248 -47 -439 -20 -122 -83 -342 -100 -348 -4 -2 -6 -9 -3 -16 3 -8 -3 -22
-13 -31 -10 -10 -17 -20 -15 -22 5 -6 -27 -73 -63 -130 -42 -65 -83 -106 -98
-96 -6 3 -7 1 -3 -6 4 -6 12 -9 17 -6 18 12 9 -8 -14 -29 -12 -11 -38 -42 -56
-68 -19 -27 -39 -48 -44 -48 -6 0 0 11 13 25 28 30 22 43 -7 15 -12 -10 -23
-16 -26 -13 -8 7 13 27 36 36 9 3 17 12 17 18 0 8 -5 7 -17 -2 -15 -11 -15
-10 1 8 21 25 38 22 30 -5 -5 -13 -4 -14 4 -3 5 7 8 21 5 31 -3 10 19 51 52
99 127 188 186 346 235 631 26 154 54 282 86 395 l6 20 -16 -20 c-8 -11 -16
-15 -16 -9 0 5 5 15 10 20 12 12 3 44 -11 44 -5 0 -14 -10 -19 -22 -7 -18 -9
-19 -9 -5 -1 10 6 32 15 48 8 17 13 33 10 36 -3 3 -10 -5 -15 -18 -5 -13 -21
-51 -36 -84 -14 -33 -41 -96 -58 -140 -17 -44 -42 -100 -54 -125 -18 -37 -22
-41 -22 -21 -1 41 -11 17 -16 -39 -3 -30 -10 -59 -17 -65 -8 -7 -9 -6 -4 3 10
17 -3 68 -14 56 -5 -5 -10 -22 -13 -39 -3 -19 -4 -14 -4 16 0 25 -3 51 -7 57
-4 6 -2 21 5 33 9 18 13 19 21 8 7 -10 8 -8 3 8 -3 12 -1 33 6 45 29 55 416
668 452 716 39 51 66 69 52 35z m435 -4 c0 -5 -4 -9 -10 -9 -5 0 -10 7 -10 16
0 8 5 12 10 9 6 -3 10 -10 10 -16z m-3994 -44 c-3 -8 0 -15 6 -15 6 0 8 -3 5
-6 -4 -4 -14 -1 -22 6 -13 11 -13 15 -3 21 18 12 21 11 14 -6z m5508 -119 c40
-17 66 -51 66 -86 0 -24 -3 -26 -35 -22 -19 2 -35 8 -35 12 0 9 -56 7 -66 -3
-4 -3 -16 -2 -27 4 -10 6 -17 7 -15 2 3 -4 -3 -16 -13 -25 -18 -17 -19 -17
-25 8 -10 38 20 92 59 109 41 18 50 18 91 1z m-6723 -13 c38 -23 56 -66 40
-100 -11 -25 -12 -25 -26 -7 -11 15 -14 16 -15 4 0 -13 -2 -13 -9 -1 -6 9 -29
16 -61 17 -29 2 -54 5 -57 8 -3 3 -14 -5 -24 -17 l-18 -22 0 30 c0 85 93 133
170 88z m1186 -25 c-3 -8 -6 -5 -6 6 -1 11 2 17 5 13 3 -3 4 -12 1 -19z m-713
-102 c37 -9 124 -23 194 -31 270 -34 366 -64 550 -177 109 -66 270 -193 297
-235 13 -19 12 -21 -3 -18 -9 2 -18 4 -19 5 -2 2 -6 3 -10 5 -5 1 -28 11 -53
23 -25 11 -92 30 -150 41 -58 12 -136 28 -173 36 -38 8 -74 12 -79 9 -6 -4 -8
-3 -5 3 3 5 -8 17 -26 27 -31 17 -31 17 -11 -1 12 -10 24 -26 27 -36 4 -11 12
-15 18 -11 8 4 9 3 5 -4 -10 -16 -73 -10 -73 6 0 7 6 11 13 8 8 -3 11 0 7 10
-5 13 -9 13 -26 -5 l-21 -21 -25 23 c-13 12 -21 17 -18 11 4 -7 -2 -14 -13
-17 -11 -3 -18 -1 -15 3 3 5 -3 13 -12 19 -10 6 -13 11 -7 11 5 0 16 -6 23
-12 11 -11 13 -10 9 2 -5 14 -16 16 -63 8 -12 -2 -19 2 -17 10 3 16 -3 15 -22
-4 -15 -14 -16 -14 -16 3 0 14 -2 15 -9 5 -4 -8 -12 -14 -17 -14 -5 0 -16 -4
-24 -9 -11 -6 -9 -8 11 -9 20 0 25 -5 25 -25 0 -14 -2 -25 -4 -25 -2 0 -24 12
-50 27 -122 70 -243 187 -328 315 -65 99 -65 100 -6 78 27 -11 80 -26 116 -34z
m5846 39 c0 -2 -11 -20 -23 -39 -104 -153 -240 -283 -369 -355 -72 -40 -79
-39 -35 3 l36 33 -25 11 c-15 7 -24 8 -24 2 0 -6 6 -10 13 -10 16 -1 -31 -40
-48 -40 -7 0 -16 -7 -19 -16 -6 -17 -26 -10 -25 9 0 9 2 9 5 0 3 -7 14 -3 30
13 15 12 24 29 21 36 -3 8 -6 5 -6 -6 -1 -11 -4 -16 -8 -13 -3 4 -13 1 -21 -6
-13 -10 -14 -8 -7 13 l7 25 -20 -23 c-20 -22 -35 -17 -29 10 2 7 2 10 0 5 -3
-4 -9 -5 -14 -1 -5 3 -5 -6 1 -20 12 -32 -3 -34 -19 -3 l-11 22 6 -22 c3 -13
1 -23 -5 -23 -10 0 -15 14 -12 33 2 10 -16 1 -43 -22 -14 -11 -17 -12 -11 -2
6 10 4 12 -4 7 -6 -4 -9 -17 -7 -29 3 -12 -1 -7 -9 11 -9 18 -13 37 -10 43 4
5 2 9 -3 9 -17 0 -22 -13 -10 -27 8 -10 8 -17 1 -24 -8 -8 -13 -5 -17 9 -7 20
-9 20 -54 6 -26 -7 -103 -23 -171 -34 -120 -20 -255 -65 -293 -98 -10 -8 -18
-12 -18 -7 0 22 194 189 307 262 158 103 303 154 517 179 158 18 259 37 346
63 71 21 80 23 80 16z m-2156 -131 c4 -12 2 -12 -14 -4 -11 6 -20 15 -20 20 0
14 28 1 34 -16z m2444 -12 c27 -17 52 -62 52 -92 0 -24 -4 -25 -34 -5 -27 18
-89 29 -81 14 4 -5 -10 -9 -30 -9 -20 0 -45 -5 -55 -10 -15 -8 -19 -7 -17 2 2
7 -1 3 -7 -9 -12 -29 -26 -30 -26 -3 0 30 24 82 48 103 40 36 103 40 150 9z
m-6469 3 c45 -23 81 -122 51 -140 -5 -3 -10 -2 -10 2 0 5 -7 18 -15 29 -14 18
-15 18 -8 0 6 -18 5 -18 -19 -2 -15 10 -33 14 -43 10 -12 -5 -16 -4 -12 3 10
16 -79 6 -108 -13 -23 -15 -25 -15 -25 0 0 31 27 83 55 104 33 26 92 29 134 7z
m4371 -119 c0 -3 -4 -8 -10 -11 -5 -3 -10 -1 -10 4 0 6 5 11 10 11 6 0 10 -2
10 -4z m-2392 -73 c-7 -9 -7 -13 1 -13 7 0 10 -4 7 -8 -3 -5 3 -42 13 -83 10
-41 33 -153 51 -249 43 -229 80 -352 145 -482 60 -119 75 -147 90 -164 47 -55
46 -52 23 -68 -23 -17 -42 -11 -34 9 2 7 -2 21 -10 32 -9 10 -12 11 -8 3 5
-10 0 -8 -15 4 -12 11 -19 26 -16 33 2 8 1 11 -4 8 -12 -7 -101 157 -140 260
-57 147 -90 339 -118 684 -6 67 -5 73 9 60 11 -10 13 -18 6 -26z m-1323 -33
c3 -5 1 -10 -4 -10 -6 0 -11 5 -11 10 0 6 2 10 4 10 3 0 8 -4 11 -10z m51 -18
c1 -7 0 -8 -2 -3 -3 6 -12 7 -21 4 -11 -4 -14 -3 -9 6 9 14 29 10 32 -7z
m4864 -7 c0 -8 -4 -15 -10 -15 -5 0 -7 7 -4 15 4 8 8 15 10 15 2 0 4 -7 4 -15z
m57 -21 c-3 -3 -12 -4 -19 -1 -8 3 -5 6 6 6 11 1 17 -2 13 -5z m373 -119 c52
2 131 11 175 19 44 9 81 16 83 16 1 0 -5 -11 -14 -25 -16 -25 -42 -36 -28 -12
6 9 5 9 -8 0 -8 -7 -17 -11 -19 -9 -2 3 -33 -2 -69 -9 -117 -25 -285 -14 -437
30 -95 28 -56 32 85 9 96 -16 166 -21 232 -19z m-5810 16 c115 -21 159 -21
290 -6 74 9 156 19 183 22 31 4 47 2 47 -6 0 -6 -1 -11 -3 -11 -2 0 -70 -11
-153 -25 -180 -30 -280 -32 -357 -7 -41 14 -59 16 -69 8 -7 -6 -10 -7 -6 -2 4
5 -3 17 -15 27 l-22 19 25 -4 c14 -3 50 -10 80 -15z m5981 -54 c-10 -9 -11 -8
-5 6 3 10 9 15 12 12 3 -3 0 -11 -7 -18z m-3971 -63 c0 -21 4 -33 10 -29 12 7
13 -5 1 -23 -6 -9 -13 1 -24 34 -16 48 -14 70 4 59 5 -4 9 -22 9 -41z m1882
14 c-9 -9 -9 -15 0 -25 13 -16 -1 -36 -19 -25 -8 5 -8 16 3 41 8 19 17 31 21
27 4 -3 1 -12 -5 -18z m-1859 -13 c-7 -21 -13 -19 -13 6 0 11 4 18 10 14 5 -3
7 -12 3 -20z m67 -10 c0 -5 -5 -3 -10 5 -8 12 -10 12 -10 1 0 -8 -2 -12 -5 -9
-3 3 -2 13 1 22 5 14 9 15 15 4 5 -7 9 -17 9 -23z m3160 0 c305 -40 321 -43
200 -44 -398 -3 -462 -7 -582 -39 -144 -37 -305 -107 -418 -181 -78 -51 -128
-72 -113 -48 16 26 219 164 298 202 147 71 333 118 485 123 14 1 72 -5 130
-13z m-4175 -25 c154 -42 345 -136 424 -209 20 -18 28 -28 18 -21 -9 7 -20 10
-23 7 -3 -3 -69 26 -147 63 -132 64 -243 102 -377 129 -31 7 -144 11 -265 11
-287 -1 -287 -1 -140 25 171 32 386 29 510 -5z m968 -5 c-3 -9 -8 -14 -10 -11
-3 3 -2 9 2 15 9 16 15 13 8 -4z m1537 -207 c57 -279 -4 -515 -179 -688 -126
-124 -306 -189 -472 -170 -138 16 -202 40 -296 112 -66 50 -127 140 -153 225
-24 77 -25 113 -6 185 33 128 99 214 204 265 49 24 69 28 142 28 74 0 92 -4
143 -30 223 -112 247 -423 40 -517 -41 -18 -61 -19 -140 -2 -26 5 -31 24 -8
24 27 0 92 38 114 66 51 65 49 149 -5 221 -31 41 -123 77 -173 68 -119 -22
-200 -128 -187 -242 17 -144 126 -247 299 -283 131 -27 287 23 401 129 67 63
103 119 136 209 23 64 28 95 29 182 2 94 -19 240 -46 325 -5 17 -4 18 10 6 9
-7 15 -17 12 -21 -3 -5 -2 -11 3 -14 13 -8 11 27 -2 43 -9 12 -8 12 11 2 19
-9 22 -9 17 3 -3 8 0 14 8 13 35 -1 48 4 49 21 1 30 29 -59 49 -160z m-60 158
c0 -2 -7 -7 -16 -10 -8 -3 -12 -2 -9 4 6 10 25 14 25 6z m2621 -71 c19 -42 22
-45 59 -45 48 0 50 -12 9 -49 -26 -25 -30 -33 -24 -60 8 -36 1 -38 -39 -12
-28 19 -29 19 -60 0 -43 -26 -47 -24 -40 19 6 35 3 40 -33 68 l-38 29 49 5
c44 4 50 8 59 35 9 29 25 55 34 55 2 0 13 -20 24 -45z m-6273 -32 c28 -30 28
-41 -2 -54 -13 -6 -27 -21 -30 -33 -6 -21 -6 -21 -18 -1 -6 11 -22 29 -36 41
l-26 21 27 18 c15 9 27 25 27 34 0 27 14 35 25 15 5 -10 20 -28 33 -41z m411
-239 c-30 -20 -59 -37 -66 -37 -7 0 -9 -5 -6 -10 4 -6 0 -8 -10 -4 -12 4 -14
2 -10 -11 5 -14 3 -14 -17 3 l-23 20 7 -22 c4 -12 2 -24 -4 -28 -6 -3 -7 -12
-4 -18 5 -8 3 -8 -7 1 -20 18 -31 15 -24 -8 4 -12 -3 -35 -19 -62 -21 -35 -26
-39 -26 -20 0 12 5 22 10 22 6 0 10 8 10 18 0 13 -2 14 -9 3 -14 -21 -24 22
-16 69 14 85 69 119 189 120 l78 0 -53 -36z m5542 12 c20 -14 43 -40 52 -58
17 -35 15 -101 -2 -122 -6 -7 -8 -16 -4 -19 3 -4 3 -7 0 -7 -4 0 -13 12 -21
28 -8 15 -42 55 -75 88 -33 34 -57 64 -54 68 4 3 -3 6 -15 6 -12 0 -22 4 -22
9 0 5 -12 14 -27 19 -23 9 -14 11 52 11 69 1 85 -2 116 -23z m-5306 -249 l30
-62 63 -3 c59 -3 62 -4 49 -22 -15 -21 -83 -71 -89 -65 -11 11 -6 -49 7 -86 8
-23 13 -44 11 -46 -5 -6 -53 21 -87 48 -23 18 -29 19 -50 7 -13 -7 -29 -20
-36 -29 -17 -22 -53 -31 -53 -13 0 8 9 36 19 64 11 27 16 50 11 50 -4 0 -31
19 -61 43 l-53 42 68 5 c75 5 72 3 107 88 12 29 24 50 28 47 3 -4 20 -34 36
-68z m1127 47 c132 -32 291 -138 399 -266 46 -54 58 -54 -111 3 -93 32 -98 33
-275 33 -230 1 -312 -8 -320 -35 -4 -11 -10 -17 -15 -14 -5 3 -11 1 -15 -5 -4
-6 -10 -8 -15 -5 -5 3 -16 -3 -26 -12 -17 -17 -18 -17 -11 0 4 10 3 16 -2 12
-5 -3 -12 -1 -15 4 -4 5 3 13 15 16 11 4 18 9 16 12 -9 8 -48 -18 -42 -28 4
-5 2 -9 -4 -9 -6 0 -8 -8 -5 -17 5 -15 3 -15 -11 2 -18 23 -25 23 -38 0 -6
-11 -5 -21 3 -28 10 -9 12 -8 7 6 -4 9 -2 17 3 17 6 0 10 -6 10 -14 0 -8 6
-17 13 -19 6 -3 2 -6 -10 -6 -12 -1 -27 -3 -35 -4 -7 -2 -10 -2 -7 0 10 6 -2
43 -13 43 -6 0 -8 -7 -4 -15 3 -8 -2 -19 -12 -24 -10 -6 -12 -11 -4 -11 6 0
12 -5 12 -11 0 -5 -4 -8 -9 -4 -5 3 -13 0 -16 -6 -4 -5 -13 -8 -19 -6 -18 7
-44 -11 -30 -20 6 -5 11 -16 11 -25 0 -13 -4 -15 -19 -7 -10 5 -18 15 -17 22
0 9 2 9 6 0 2 -7 9 -13 15 -13 6 0 6 6 -2 15 -15 18 -30 11 -30 -16 0 -11 7
-19 18 -19 14 0 15 -2 2 -9 -19 -13 -30 -5 -31 22 0 21 -1 21 -9 2 -5 -12 -9
-14 -9 -6 -1 8 -4 11 -8 7 -5 -4 0 -14 11 -21 10 -8 15 -18 12 -23 -3 -5 13
-3 37 5 63 22 167 50 212 57 88 14 343 29 361 21 10 -4 36 -7 57 -6 38 3 46
-6 25 -27 -15 -15 -31 -16 -22 -1 5 8 2 9 -11 2 -9 -6 -49 -8 -88 -5 -162 10
-515 -53 -712 -126 -71 -27 -145 -52 -163 -55 l-33 -7 54 68 c30 37 81 105
114 152 93 131 218 257 315 318 168 105 311 130 490 86z m2967 5 c123 -30 286
-138 392 -262 67 -77 257 -329 266 -353 4 -11 -5 -10 -40 5 -139 60 -385 126
-567 152 -80 11 -337 13 -407 3 -29 -4 -43 -3 -43 5 0 6 -7 11 -17 11 -24 0
-6 15 20 16 12 1 58 7 102 14 127 19 362 -2 538 -48 98 -26 107 -27 107 -11 0
9 6 20 13 23 6 2 1 4 -13 3 -15 -1 -24 3 -23 10 2 9 -4 10 -22 3 -20 -7 -25
-6 -25 5 0 8 11 17 24 21 l24 6 -20 20 c-15 15 -17 22 -8 28 10 6 10 12 0 26
-9 16 -11 16 -6 2 3 -10 1 -20 -3 -23 -5 -3 -7 -14 -4 -25 6 -24 -19 -51 -37
-40 -23 14 -21 40 3 36 12 -2 16 -1 10 1 -10 3 -10 10 -2 26 8 16 1 12 -25
-12 -20 -19 -36 -30 -36 -25 0 6 5 15 12 22 9 9 5 12 -20 12 -18 0 -32 4 -32
10 0 6 17 8 40 5 23 -3 40 -1 40 5 0 5 -7 6 -17 3 -10 -4 -14 -2 -10 4 4 6 -6
9 -24 8 -17 -1 -35 -8 -39 -16 -5 -7 -12 -10 -16 -6 -4 3 -1 13 6 22 17 20 1
19 -22 -2 -20 -18 -25 -4 -6 15 10 10 5 11 -20 6 -25 -5 -32 -3 -32 10 0 9 5
16 10 16 6 0 10 -5 10 -11 0 -5 5 -7 10 -4 16 10 11 21 -10 22 -11 1 -25 -7
-30 -18 -6 -10 -15 -19 -21 -19 -6 0 -6 8 1 21 7 11 10 23 7 25 -2 2 -64 9
-138 15 -173 14 -361 5 -464 -22 -44 -12 -84 -22 -90 -23 -5 -1 -16 -5 -23
-10 -7 -4 -16 -5 -19 -2 -3 3 -13 0 -21 -7 -41 -33 12 33 70 88 120 115 206
171 308 204 97 30 235 34 339 10z m910 -54 l30 -65 55 0 c31 0 56 -4 56 -9 0
-11 -77 -81 -89 -81 -5 0 -4 -18 1 -41 9 -33 8 -43 -5 -56 -14 -14 -17 -13
-38 6 -13 11 -29 21 -36 21 -7 0 -13 6 -13 13 0 6 -5 4 -11 -5 -5 -10 -18 -18
-27 -18 -15 0 -15 2 -2 10 8 5 11 10 5 10 -5 0 -17 -5 -25 -10 -8 -5 -11 -10
-6 -10 5 0 1 -9 -9 -20 -33 -36 -37 -5 -11 76 5 17 -4 27 -49 58 -30 21 -55
42 -55 47 0 5 15 9 33 9 79 0 103 10 117 49 26 74 30 81 40 81 5 0 23 -29 39
-65z m-894 -214 c3 -5 2 -12 -3 -15 -5 -3 -9 1 -9 9 0 17 3 19 12 6z m-885 -5
c0 -2 -8 -10 -17 -17 -16 -13 -17 -12 -4 4 13 16 21 21 21 13z m-57 -41 c-3
-9 -8 -14 -10 -11 -3 3 -2 9 2 15 9 16 15 13 8 -4z m-1399 -3 c3 -5 -1 -9 -9
-9 -8 0 -12 4 -9 9 3 4 7 8 9 8 2 0 6 -4 9 -8z m-1184 -96 c0 -3 -4 -8 -10
-11 -5 -3 -10 -1 -10 4 0 6 5 11 10 11 6 0 10 -2 10 -4z m3841 -43 c12 -15 12
-16 -1 -8 -8 5 -24 8 -35 7 -17 -2 -17 -1 -5 7 20 14 25 14 41 -6z m-744 1
c-3 -3 -12 -4 -19 -1 -8 3 -5 6 6 6 11 1 17 -2 13 -5z m-43 -350 c3 -9 6 -21
6 -28 0 -14 -42 -36 -69 -36 -28 0 -46 -26 -31 -44 10 -13 16 -13 46 2 31 14
36 14 44 2 20 -31 11 -49 -30 -61 -28 -9 -40 -18 -40 -31 0 -23 8 -23 72 2 28
11 52 19 53 17 27 -56 28 -53 -43 -75 -111 -33 -129 -35 -135 -9 -2 12 -16 67
-30 121 -15 55 -24 102 -22 104 3 4 149 48 166 51 4 1 10 -6 13 -15z m-2225
-3 c12 -8 8 -29 -23 -128 -21 -65 -39 -119 -40 -121 -2 -1 -17 3 -34 9 l-31
11 42 119 c42 119 52 132 86 110z m220 -82 c6 -18 11 -40 11 -50 0 -35 19 -29
25 8 10 59 12 61 39 56 19 -4 26 -12 26 -27 0 -25 -54 -223 -63 -232 -3 -3
-14 -3 -25 0 -23 8 -42 46 -42 86 0 44 -16 36 -26 -12 -8 -37 -13 -43 -36 -46
-38 -4 -37 12 8 154 32 102 38 113 54 104 10 -5 23 -24 29 -41z m1676 -26 c17
-21 19 -76 5 -103 -8 -16 -4 -28 20 -62 l31 -43 -32 -8 c-27 -7 -36 -5 -46 10
-30 41 -44 53 -63 53 -18 0 -20 -6 -18 -42 3 -37 0 -42 -24 -48 -25 -8 -27 -6
-37 49 -6 31 -17 88 -25 126 -8 39 -13 71 -12 72 1 1 29 8 61 16 68 15 120 8
140 -20z m-1298 -18 c27 -18 28 -23 8 -49 -14 -18 -24 -17 -57 6 -14 10 -20
10 -30 -1 -11 -10 -9 -16 10 -29 67 -49 75 -59 74 -93 -1 -50 -43 -83 -93 -75
-60 10 -89 24 -89 44 0 33 19 42 55 25 33 -16 65 -13 65 6 0 5 -19 20 -42 33
-52 29 -69 67 -47 106 29 52 90 63 146 27z m951 -72 c27 -185 27 -179 -3 -187
-15 -4 -29 -5 -32 -2 -3 2 -11 51 -19 108 -8 57 -17 115 -20 131 -5 25 -3 27
28 27 l35 0 11 -77z m-611 35 c32 -30 31 -90 -2 -123 -18 -19 -35 -25 -68 -25
l-45 0 -6 -42 c-6 -40 -9 -43 -37 -43 l-31 0 6 59 c3 32 6 93 6 134 l0 74 77
-6 c59 -5 83 -12 100 -28z m348 16 c19 -8 45 -55 45 -83 0 -11 -12 -33 -26
-50 -22 -26 -33 -31 -70 -31 l-44 0 0 -44 c0 -41 -2 -44 -29 -48 -38 -6 -41 5
-41 150 l0 112 74 0 c41 0 82 -3 91 -6z"/>
<path d="M4581 8474 c0 -11 3 -14 6 -6 3 7 2 16 -1 19 -3 4 -6 -2 -5 -13z"/>
<path d="M5773 7730 c-12 -5 -26 -18 -32 -29 -17 -31 -13 -32 15 -4 19 19 33
24 55 21 16 -3 29 -1 29 4 0 4 -4 8 -9 8 -5 0 -15 2 -23 4 -7 3 -23 1 -35 -4z"/>
<path d="M5396 7678 c-9 -5 -21 -18 -27 -29 -10 -20 -10 -20 17 -2 16 10 25
12 21 6 -5 -7 -4 -13 2 -13 6 0 11 7 11 16 0 8 5 12 10 9 6 -3 10 -1 10 5 0 8
13 10 43 5 30 -4 38 -3 27 4 -18 13 -91 12 -114 -1z"/>
<path d="M5963 7460 c-50 -23 -69 -39 -93 -77 -17 -26 -28 -53 -26 -60 3 -6 0
-13 -7 -16 -19 -6 39 -57 65 -57 13 0 32 7 42 15 11 8 37 15 59 15 21 0 47 5
58 10 13 8 19 7 19 0 0 -7 8 -7 23 2 34 18 57 20 63 3 8 -21 70 -20 78 1 3 9
6 28 7 42 0 23 3 21 16 -15 14 -42 33 -58 33 -29 0 8 4 16 9 18 5 2 0 22 -11
46 -21 43 -103 121 -115 108 -3 -3 -1 -6 5 -6 7 0 12 -5 12 -11 0 -8 -4 -9
-13 0 -8 6 -17 8 -21 4 -4 -4 -4 0 -1 8 15 40 -118 40 -202 -1z m307 -64 c0
-2 -8 -10 -17 -17 -16 -13 -17 -12 -4 4 13 16 21 21 21 13z m20 -60 c0 -26 -6
-18 -14 19 -5 22 -4 26 4 15 5 -8 10 -24 10 -34z m-419 -3 c-12 -20 -14 -14
-5 12 4 9 9 14 11 11 3 -2 0 -13 -6 -23z m13 -38 c-4 -8 -13 -15 -22 -15 -13
0 -12 3 4 15 24 18 25 18 18 0z m41 -15 c3 -6 -1 -7 -9 -4 -18 7 -21 14 -7 14
6 0 13 -4 16 -10z"/>
<path d="M4897 7473 c-15 -2 -25 -7 -23 -11 2 -4 -7 -8 -21 -9 -28 -1 -108
-55 -108 -72 0 -7 -7 -16 -15 -21 -11 -7 -12 -12 -4 -20 8 -8 21 -7 49 4 22 9
66 16 106 16 57 0 67 3 63 15 -4 8 -1 15 5 15 6 0 11 -4 11 -9 0 -4 11 -7 25
-6 14 2 27 -1 31 -6 7 -12 104 -12 105 1 1 6 2 14 3 20 2 18 23 33 31 21 3 -6
1 -10 -5 -9 -7 2 -14 -5 -15 -15 -3 -18 -3 -18 16 -1 20 18 27 6 8 -13 -7 -7
-2 -10 18 -9 23 1 27 -3 25 -19 -2 -16 -1 -17 7 -6 12 19 -5 43 -57 82 -71 52
-148 68 -255 52z m-104 -75 c-4 -7 -8 -17 -8 -22 0 -5 -7 -11 -15 -13 -13 -4
-13 -3 0 6 8 6 11 11 6 11 -5 0 -3 7 4 15 15 18 24 20 13 3z m397 -18 c0 -5
-5 -10 -11 -10 -5 0 -7 5 -4 10 3 6 8 10 11 10 2 0 4 -4 4 -10z"/>
<path d="M5220 7336 c0 -2 8 -10 18 -17 15 -13 16 -12 3 4 -13 16 -21 21 -21
13z"/>
<path d="M5230 7295 c0 -2 6 -8 13 -14 10 -8 14 -7 14 2 0 8 -6 14 -14 14 -7
0 -13 -1 -13 -2z"/>
<path d="M6250 7290 c0 -5 5 -10 10 -10 6 0 10 5 10 10 0 6 -4 10 -10 10 -5 0
-10 -4 -10 -10z"/>
<path d="M5978 7263 c7 -3 16 -2 19 1 4 3 -2 6 -13 5 -11 0 -14 -3 -6 -6z"/>
<path d="M3972 7080 c0 -14 2 -19 5 -12 2 6 2 18 0 25 -3 6 -5 1 -5 -13z"/>
<path d="M3855 7066 c10 -7 27 -11 37 -8 31 8 20 22 -19 22 -34 0 -35 -1 -18
-14z"/>
<path d="M3928 7053 c7 -3 16 -2 19 1 4 3 -2 6 -13 5 -11 0 -14 -3 -6 -6z"/>
<path d="M3827 6933 c-13 -13 -7 -43 9 -43 13 0 14 3 4 15 -6 8 -9 19 -5 25 7
11 2 14 -8 3z"/>
<path d="M5949 6781 c-75 -27 -142 -52 -148 -55 -7 -5 -11 -77 -11 -229 l0
-222 -40 -17 c-25 -10 -44 -26 -50 -43 -31 -82 10 -152 85 -142 26 4 48 15 62
32 23 26 23 31 23 269 l0 243 80 27 c43 14 81 26 83 26 1 0 4 -33 5 -72 l3
-73 -33 -15 c-45 -20 -64 -61 -46 -97 11 -24 20 -28 59 -31 60 -4 83 20 83 86
1 170 -5 362 -11 361 -5 0 -69 -22 -144 -48z"/>
<path d="M3998 6723 c7 -3 16 -2 19 1 4 3 -2 6 -13 5 -11 0 -14 -3 -6 -6z"/>
<path d="M4030 6721 c0 -6 9 -9 20 -8 11 1 20 5 20 9 0 4 -9 8 -20 8 -11 0
-20 -4 -20 -9z"/>
<path d="M4081 6714 c0 -11 3 -14 6 -6 3 7 2 16 -1 19 -3 4 -6 -2 -5 -13z"/>
<path d="M4165 6719 c-11 -16 -1 -19 13 -3 7 8 8 14 3 14 -5 0 -13 -5 -16 -11z"/>
<path d="M3897 6664 c-11 -11 3 -24 18 -18 8 4 12 10 9 15 -6 11 -18 12 -27 3z"/>
<path d="M5502 6657 c-8 -10 -6 -13 8 -13 10 0 16 4 13 9 -3 5 4 6 16 2 12 -4
21 -2 21 4 0 15 -45 14 -58 -2z"/>
<path d="M3850 6649 c0 -5 5 -7 10 -4 6 3 10 8 10 11 0 2 -4 4 -10 4 -5 0 -10
-5 -10 -11z"/>
<path d="M3818 6623 c7 -3 16 -2 19 1 4 3 -2 6 -13 5 -11 0 -14 -3 -6 -6z"/>
<path d="M4000 6599 c0 -13 26 -15 138 -11 64 2 112 8 112 14 0 6 -48 8 -125
6 -69 -2 -125 -6 -125 -9z"/>
<path d="M5525 6480 c-4 -6 -10 -8 -15 -5 -5 3 -11 1 -14 -4 -4 -5 -1 -13 5
-17 7 -4 16 1 21 11 8 14 12 15 19 4 4 -7 11 -10 14 -7 8 8 -3 28 -15 28 -5 0
-12 -5 -15 -10z"/>
<path d="M6395 6480 c-19 -8 -19 -9 3 -9 12 -1 22 4 22 9 0 6 -1 10 -2 9 -2 0
-12 -4 -23 -9z"/>
<path d="M6435 6470 c4 -6 11 -8 16 -5 14 9 11 15 -7 15 -8 0 -12 -5 -9 -10z"/>
<path d="M6331 6414 c0 -11 3 -14 6 -6 3 7 2 16 -1 19 -3 4 -6 -2 -5 -13z"/>
<path d="M5496 6412 c-3 -5 1 -9 9 -9 8 0 12 4 9 9 -3 4 -7 8 -9 8 -2 0 -6 -4
-9 -8z"/>
<path d="M6356 6400 c-2 -3 -6 -17 -10 -33 -4 -19 -3 -26 6 -25 7 2 14 -7 16
-19 3 -19 -1 -21 -40 -21 -71 1 -88 -2 -88 -11 0 -5 20 -8 44 -7 39 2 45 0 50
-20 5 -17 11 -21 28 -17 22 4 23 4 4 -11 -16 -13 -17 -16 -4 -16 18 0 43 52
35 72 -3 7 -6 3 -6 -9 -1 -13 -6 -23 -12 -23 -6 0 -8 7 -5 16 3 9 6 26 6 40 0
16 4 22 14 18 8 -3 17 0 21 7 6 8 1 10 -18 7 -36 -7 -45 21 -15 44 l23 17 -23
-2 c-13 -1 -25 -4 -26 -7z"/>
<path d="M6410 6384 c0 -12 3 -14 13 -6 6 5 21 12 32 15 13 3 9 5 -12 6 -24 1
-33 -3 -33 -15z"/>
<path d="M6265 6270 c-3 -5 1 -10 10 -10 9 0 13 5 10 10 -3 6 -8 10 -10 10 -2
0 -7 -4 -10 -10z"/>
<path d="M6150 6170 c0 -5 7 -10 16 -10 8 0 12 5 9 10 -3 6 -10 10 -16 10 -5
0 -9 -4 -9 -10z"/>
<path d="M6080 6090 c0 -4 6 -11 13 -13 6 -3 2 -6 -10 -6 -25 -1 -33 -21 -9
-21 15 0 46 26 46 39 0 4 -9 7 -20 8 -11 1 -20 -2 -20 -7z"/>
<path d="M6015 6080 c28 -12 37 -12 30 0 -3 6 -16 10 -28 9 -21 0 -21 -1 -2
-9z"/>
<path d="M5680 6000 c0 -6 8 -10 18 -11 135 -6 222 -6 222 2 0 5 -39 9 -87 10
-49 0 -103 2 -120 5 -18 2 -33 -1 -33 -6z"/>
<path d="M4690 5991 c0 -5 -15 -18 -32 -30 -34 -21 -32 -29 3 -11 13 7 25 7
38 1 18 -10 20 -4 12 42 -2 10 -21 9 -21 -2z"/>
<path d="M4120 8126 c0 -2 8 -10 18 -17 15 -13 16 -12 3 4 -13 16 -21 21 -21
13z"/>
<path d="M7785 7480 c3 -5 8 -10 11 -10 2 0 4 5 4 10 0 6 -5 10 -11 10 -5 0
-7 -4 -4 -10z"/>
<path d="M7795 7460 c-16 -7 -17 -9 -3 -9 9 -1 20 4 23 9 7 11 7 11 -20 0z"/>
<path d="M2215 6652 c-3 -9 -3 -13 1 -10 4 4 15 3 25 -3 24 -13 24 -8 0 13
-18 15 -20 15 -26 0z"/>
<path d="M2581 6662 c-1 -16 -18 -33 -46 -50 -15 -9 -16 -11 -4 -12 21 0 62
45 56 62 -5 11 -6 11 -6 0z"/>
<path d="M7826 6807 c3 -10 9 -15 12 -12 3 3 0 11 -7 18 -10 9 -11 8 -5 -6z"/>
<path d="M6818 6693 c6 -2 18 -2 25 0 6 3 1 5 -13 5 -14 0 -19 -2 -12 -5z"/>
<path d="M2799 6188 c-6 -21 -5 -38 2 -38 5 0 9 9 9 20 0 16 -7 28 -11 18z"/>
<path d="M7570 6181 c0 -5 5 -13 10 -16 6 -3 10 -2 10 4 0 5 -4 13 -10 16 -5
3 -10 2 -10 -4z"/>
<path d="M6955 6350 c3 -5 8 -10 11 -10 2 0 4 5 4 10 0 6 -5 10 -11 10 -5 0
-7 -4 -4 -10z"/>
<path d="M3980 6220 c-13 -8 -12 -10 3 -10 9 0 17 5 17 10 0 12 -1 12 -20 0z"/>
<path d="M8052 5670 c0 -14 2 -19 5 -12 2 6 2 18 0 25 -3 6 -5 1 -5 -13z"/>
<path d="M4448 6193 c6 -2 18 -2 25 0 6 3 1 5 -13 5 -14 0 -19 -2 -12 -5z"/>
<path d="M4372 6181 c-11 -6 -9 -9 5 -13 12 -3 20 0 20 8 0 16 -6 17 -25 5z"/>
<path d="M5940 5945 c0 -5 4 -16 9 -23 6 -11 10 -10 15 4 3 9 4 19 1 22 -3 3
-5 -1 -5 -9 0 -11 -2 -11 -10 1 -5 8 -10 11 -10 5z"/>
<path d="M7520 5267 c0 -4 7 -21 15 -38 15 -28 36 -32 34 -6 0 7 -3 6 -6 -2
-4 -10 -12 -3 -24 20 -10 19 -18 30 -19 26z"/>
<path d="M3225 5430 c-3 -6 1 -7 9 -4 18 7 21 14 7 14 -6 0 -13 -4 -16 -10z"/>
<path d="M2695 5329 c-4 -6 -5 -12 -2 -15 2 -3 7 2 10 11 7 17 1 20 -8 4z"/>
<path d="M2696 5292 c-3 -5 1 -9 9 -9 8 0 12 4 9 9 -3 4 -7 8 -9 8 -2 0 -6 -4
-9 -8z"/>
<path d="M5960 3620 c0 -5 5 -10 10 -10 6 0 10 5 10 10 0 6 -4 10 -10 10 -5 0
-10 -4 -10 -10z"/>
<path d="M5987 3607 c-3 -7 3 -13 14 -13 13 0 15 3 7 13 -6 7 -12 13 -13 13
-2 0 -5 -6 -8 -13z"/>
<path d="M6040 3610 c0 -5 5 -10 11 -10 5 0 7 5 4 10 -3 6 -8 10 -11 10 -2 0
-4 -4 -4 -10z"/>
<path d="M5990 3576 c0 -2 8 -10 18 -17 15 -13 16 -12 3 4 -13 16 -21 21 -21
13z"/>
<path d="M5950 3566 c0 -2 8 -10 18 -17 15 -13 16 -12 3 4 -13 16 -21 21 -21
13z"/>
<path d="M6430 4655 c-14 -8 -20 -14 -14 -15 5 0 19 7 30 15 24 18 16 19 -16
0z"/>
<path d="M6015 4350 c3 -5 8 -10 11 -10 2 0 4 5 4 10 0 6 -5 10 -11 10 -5 0
-7 -4 -4 -10z"/>
<path d="M7840 4441 c0 -5 5 -13 10 -16 6 -3 10 -2 10 4 0 5 -4 13 -10 16 -5
3 -10 2 -10 -4z"/>
<path d="M5195 4800 c-3 -5 -1 -10 4 -10 6 0 11 5 11 10 0 6 -2 10 -4 10 -3 0
-8 -4 -11 -10z"/>
<path d="M2986 4057 c3 -8 11 -14 19 -14 20 0 19 4 -5 17 -15 8 -18 8 -14 -3z"/>
<path d="M7316 4172 c-2 -4 -1 -14 4 -22 7 -11 9 -9 7 8 -1 24 -3 26 -11 14z"/>
<path d="M7335 4131 c-3 -5 -1 -12 5 -16 5 -3 10 1 10 9 0 18 -6 21 -15 7z"/>
<path d="M6996 4064 c-5 -14 -4 -15 9 -4 17 14 19 20 6 20 -5 0 -12 -7 -15
-16z"/>
<path d="M4840 3716 c0 -2 8 -10 18 -17 15 -13 16 -12 3 4 -13 16 -21 21 -21
13z"/>
<path d="M4220 3234 c0 -13 18 -39 24 -34 2 3 -2 14 -10 24 -8 11 -14 16 -14
10z"/>
<path d="M6124 3226 c-5 -14 -9 -15 -15 -4 -6 9 -9 9 -9 1 0 -6 4 -14 9 -17
11 -7 36 22 28 31 -4 3 -10 -2 -13 -11z"/>
<path d="M2547 3479 c3 -10 0 -19 -6 -19 -6 0 -11 -5 -11 -12 0 -6 3 -8 7 -5
3 4 12 2 18 -3 9 -8 14 -6 18 4 4 11 1 13 -10 9 -13 -5 -13 -3 -4 14 8 16 8
22 -3 26 -10 4 -12 0 -9 -14z"/>
<path d="M2776 3407 c3 -10 9 -15 12 -12 3 3 0 11 -7 18 -10 9 -11 8 -5 -6z"/>
<path d="M5705 3031 c-3 -6 -11 -9 -16 -6 -5 4 -9 2 -9 -3 0 -18 13 -21 27 -6
9 8 13 17 10 20 -3 3 -8 0 -12 -5z"/>
<path d="M7950 2671 c0 -10 36 -21 44 -14 3 3 3 10 0 14 -7 12 -44 12 -44 0z"/>
<path d="M2696 2334 c-8 -22 -8 -26 3 -20 5 4 11 3 14 -1 2 -5 2 -2 0 6 -2 8
2 11 10 8 8 -3 14 1 14 9 0 19 -33 18 -41 -2z"/>
<path d="M2741 2264 c0 -11 3 -14 6 -6 3 7 2 16 -1 19 -3 4 -6 -2 -5 -13z"/>
<path d="M2705 2250 c3 -5 8 -10 11 -10 2 0 4 5 4 10 0 6 -5 10 -11 10 -5 0
-7 -4 -4 -10z"/>
<path d="M3500 2280 c0 -5 5 -10 10 -10 6 0 10 5 10 10 0 6 -4 10 -10 10 -5 0
-10 -4 -10 -10z"/>
<path d="M3476 2265 c4 -8 8 -15 10 -15 2 0 4 7 4 15 0 8 -4 15 -10 15 -5 0
-7 -7 -4 -15z"/>
<path d="M3276 2204 c-4 -9 -4 -19 -1 -22 3 -3 5 0 5 7 0 7 5 9 10 6 6 -3 10
-2 10 4 0 18 -18 21 -24 5z"/>
<path d="M3240 2189 c0 -5 -6 -7 -12 -3 -8 5 -8 1 2 -12 8 -10 15 -20 16 -22
1 -2 2 9 2 23 0 14 -2 25 -4 25 -2 0 -4 -5 -4 -11z"/>
<path d="M3173 2144 c0 -9 6 -10 16 -5 9 5 23 6 31 3 8 -2 12 -2 8 2 -12 14
-55 13 -55 0z"/>
<path d="M3138 2103 c7 -3 16 -2 19 1 4 3 -2 6 -13 5 -11 0 -14 -3 -6 -6z"/>
<path d="M3145 2070 c-3 -5 1 -10 10 -10 9 0 13 5 10 10 -3 6 -8 10 -10 10 -2
0 -7 -4 -10 -10z"/>
<path d="M3115 2050 c3 -5 8 -10 11 -10 2 0 4 5 4 10 0 6 -5 10 -11 10 -5 0
-7 -4 -4 -10z"/>
<path d="M6945 2260 c3 -5 8 -10 11 -10 2 0 4 5 4 10 0 6 -5 10 -11 10 -5 0
-7 -4 -4 -10z"/>
<path d="M7153 2143 c-15 -5 -17 -23 -4 -23 5 0 11 7 15 15 3 8 4 15 3 14 -1
0 -8 -3 -14 -6z"/>
<path d="M7202 2120 c0 -14 2 -19 5 -12 2 6 2 18 0 25 -3 6 -5 1 -5 -13z"/>
<path d="M7183 2073 c-7 -2 -13 -9 -13 -15 0 -6 6 -6 15 2 8 6 19 9 25 5 5 -3
10 -1 10 4 0 11 -16 13 -37 4z"/>
<path d="M7695 2340 c-3 -5 -1 -10 4 -10 6 0 11 5 11 10 0 6 -2 10 -4 10 -3 0
-8 -4 -11 -10z"/>
<path d="M7710 2308 c0 -10 -4 -18 -10 -18 -5 0 -10 -4 -10 -9 0 -5 9 -7 20
-4 22 6 24 11 10 33 -8 13 -10 12 -10 -2z"/>
<path d="M7745 2270 c3 -5 8 -10 11 -10 2 0 4 5 4 10 0 6 -5 10 -11 10 -5 0
-7 -4 -4 -10z"/>
<path d="M5906 1584 c-18 -18 -19 -24 -7 -43 11 -17 59 -7 68 14 6 18 -13 45
-33 45 -7 0 -20 -7 -28 -16z"/>
<path d="M4946 1524 c-13 -34 -6 -44 28 -44 37 0 54 23 35 46 -16 19 -55 18
-63 -2z"/>
<path d="M5310 1509 c0 -28 2 -30 32 -27 57 5 48 57 -9 58 -19 0 -23 -5 -23
-31z"/>
</g>
</svg>
